<svg id="svg" version="1.1" xmlns="http://www.w3.org/2000/svg" xmlns:xlink="http://www.w3.org/1999/xlink" width="400" height="929.1521486643438" viewBox="0, 0, 400,929.1521486643438"><g id="svgg"><path id="path0" d="M147.844 1.407 C 146.540 2.594,146.200 2.707,145.417 2.218 C 143.815 1.217,143.323 2.361,143.313 7.109 C 143.299 13.892,142.636 14.080,137.255 8.827 C 133.023 4.696,132.065 4.371,129.991 6.359 C 128.344 7.936,128.357 8.408,130.081 9.683 C 131.765 10.927,131.982 12.053,130.330 10.971 C 127.957 9.416,127.629 9.764,125.247 16.376 C 121.451 26.913,120.622 31.048,122.223 31.467 C 123.023 31.676,123.146 31.973,122.929 33.166 C 121.945 38.588,122.570 44.385,124.096 43.986 C 125.408 43.643,125.614 45.201,125.277 52.919 L 124.980 59.698 127.803 56.562 C 129.356 54.837,130.818 53.426,131.051 53.426 C 131.734 53.426,131.537 55.668,130.818 56.074 C 130.457 56.279,130.092 57.073,130.005 57.839 C 129.884 58.922,129.465 59.412,128.126 60.040 C 126.067 61.006,125.875 61.334,124.067 66.979 C 123.201 69.682,121.939 72.403,120.791 74.042 C 116.555 80.089,113.856 85.482,115.065 85.482 C 115.239 85.482,116.992 83.914,118.961 81.998 C 122.260 78.787,124.042 77.745,124.042 79.027 C 124.042 79.310,123.539 79.937,122.924 80.420 C 121.834 81.278,120.325 84.803,120.325 86.494 C 120.325 87.933,122.132 87.517,123.018 85.873 C 126.610 79.213,127.399 80.382,127.010 91.793 C 126.569 104.749,127.752 104.460,130.024 91.057 C 130.523 88.118,131.168 85.098,131.458 84.345 L 131.986 82.976 132.827 84.257 C 133.290 84.962,133.940 86.362,134.272 87.369 C 135.051 89.731,135.428 89.674,136.682 87.007 C 137.633 84.982,137.733 84.902,137.983 85.962 C 138.703 89.012,141.181 85.985,141.680 81.447 C 142.417 74.729,143.306 75.235,143.462 82.462 C 143.647 91.025,143.428 92.266,141.119 95.704 C 139.032 98.813,138.297 102.904,139.826 102.904 C 140.520 102.904,140.836 102.183,141.712 98.606 C 142.844 93.986,143.807 97.476,143.053 103.465 C 142.687 106.374,142.658 108.000,142.965 108.308 C 143.622 108.965,144.948 107.522,144.948 106.150 C 144.948 104.429,145.750 104.362,146.302 106.037 C 146.989 108.119,147.704 113.897,147.721 117.515 C 147.738 121.090,148.132 120.846,149.771 116.248 C 152.212 109.401,155.021 105.835,155.800 108.595 C 156.888 112.445,156.405 115.679,154.743 115.679 C 153.520 115.679,153.160 116.370,154.012 117.077 C 155.065 117.951,154.906 118.326,152.149 121.467 C 146.765 127.599,151.443 125.789,158.537 118.995 C 161.779 115.890,162.434 115.629,160.628 118.163 C 159.910 119.170,159.573 120.330,159.550 121.872 C 159.517 124.048,159.436 124.176,156.861 126.102 C 153.955 128.275,151.916 130.720,151.916 132.030 C 151.916 133.219,152.693 133.069,153.585 131.707 C 154.720 129.976,155.006 130.257,155.337 133.429 C 155.827 138.110,157.190 137.872,157.768 133.004 C 158.176 129.576,158.846 128.295,161.009 126.806 C 163.427 125.143,163.531 125.134,163.531 126.597 C 163.531 128.300,165.460 128.346,166.814 126.676 C 168.306 124.836,168.261 126.230,166.741 128.922 C 165.857 130.488,164.466 132.113,163.342 132.891 C 159.609 135.477,158.834 136.251,157.619 138.610 C 155.991 141.767,155.614 148.259,156.765 153.319 C 157.301 155.677,157.387 156.852,157.048 157.191 C 156.710 157.530,156.562 157.023,156.562 155.521 C 156.562 153.224,156.183 152.664,154.949 153.137 C 154.428 153.337,154.212 153.898,154.277 154.881 C 154.547 158.906,153.985 159.249,150.755 157.027 C 147.321 154.664,146.516 155.899,149.339 159.197 C 150.889 161.008,150.904 161.063,149.800 160.852 C 149.173 160.732,148.376 160.869,148.030 161.156 C 147.552 161.553,147.119 161.455,146.218 160.746 C 145.566 160.233,144.749 159.814,144.401 159.814 C 144.054 159.814,142.757 158.978,141.520 157.956 C 138.085 155.117,137.182 155.610,137.992 159.882 C 138.240 161.192,138.444 162.344,138.444 162.441 C 138.444 162.539,137.555 162.562,136.469 162.494 L 134.495 162.369 134.651 164.344 C 134.737 165.430,134.693 166.318,134.553 166.318 C 134.039 166.318,133.343 162.650,132.421 155.092 C 131.403 146.748,131.176 145.743,130.372 146.014 C 129.831 146.197,129.687 150.419,130.094 154.171 L 130.314 156.193 128.571 156.306 C 127.008 156.407,126.829 156.304,126.829 155.297 C 126.829 154.399,126.620 154.204,125.784 154.323 C 124.785 154.465,124.744 154.640,124.863 158.304 C 125.002 162.613,124.139 163.623,123.076 160.395 C 122.760 159.437,122.188 158.422,121.805 158.141 C 121.359 157.813,121.008 156.474,120.833 154.429 C 120.428 149.724,116.643 148.247,115.009 152.157 C 114.311 153.827,113.065 154.302,112.595 153.078 C 111.955 151.410,109.175 152.618,109.175 154.564 C 109.175 155.791,109.734 155.943,110.565 154.941 C 111.351 153.994,111.879 154.437,112.977 156.962 C 114.988 161.587,115.620 169.509,113.771 166.919 C 113.415 166.421,112.445 165.779,111.616 165.493 C 110.786 165.208,109.407 164.440,108.552 163.788 C 106.999 162.603,105.459 162.224,105.459 163.026 C 105.459 163.259,106.870 164.742,108.595 166.321 C 111.899 169.347,110.432 169.018,106.789 165.916 L 104.953 164.352 105.275 157.437 C 105.602 150.410,105.508 149.988,103.887 151.214 C 103.129 151.788,102.838 151.786,101.704 151.200 C 99.232 149.922,99.127 151.541,101.510 154.178 C 103.325 156.187,103.467 157.049,102.405 159.592 L 101.674 161.341 99.269 159.001 C 96.777 156.577,94.499 155.171,93.054 155.165 C 92.595 155.164,91.591 154.747,90.825 154.239 C 88.158 152.474,87.139 153.693,89.699 155.586 C 91.056 156.589,91.088 156.687,90.342 157.511 C 89.813 158.096,89.619 158.915,89.749 160.026 C 89.855 160.931,89.873 161.672,89.789 161.672 C 89.243 161.672,84.072 158.730,82.927 157.767 C 80.915 156.076,82.922 156.085,85.480 157.778 C 88.176 159.561,89.699 158.612,88.011 156.201 C 87.557 155.553,86.804 155.168,85.990 155.168 C 85.276 155.168,84.029 154.937,83.219 154.655 C 80.080 153.561,79.378 156.389,82.053 159.350 C 84.686 162.264,82.853 163.649,78.978 161.672 C 76.678 160.499,76.849 160.474,75.254 162.220 C 73.917 163.683,73.863 163.697,69.312 163.730 L 64.719 163.763 61.876 166.395 C 58.488 169.532,55.778 170.654,49.942 171.336 C 44.033 172.026,43.206 172.407,43.206 174.437 C 43.206 176.094,42.471 176.658,41.980 175.377 C 41.535 174.218,40.574 174.583,38.887 176.554 C 37.446 178.237,37.257 178.332,37.036 177.484 C 36.671 176.091,35.098 176.317,33.538 177.986 C 32.507 179.089,31.742 179.454,30.316 179.524 C 26.616 179.703,24.560 182.114,28.107 182.114 C 30.641 182.114,30.870 182.888,28.455 183.292 C 23.573 184.109,22.441 185.685,26.568 185.921 L 29.036 186.063 27.549 186.876 C 26.731 187.323,25.232 187.689,24.217 187.689 C 22.807 187.689,21.898 188.069,20.361 189.302 C 19.256 190.190,17.183 191.742,15.755 192.752 C 14.328 193.763,12.807 195.127,12.376 195.785 C 11.946 196.442,11.187 196.980,10.691 196.980 C 8.689 196.980,8.100 200.549,10.064 200.782 C 11.243 200.922,11.183 201.017,8.786 202.798 C 6.697 204.350,6.183 205.022,5.749 206.774 C 5.461 207.933,4.875 209.561,4.445 210.391 C 1.815 215.478,0.475 225.361,0.155 242.044 C -0.141 257.457,0.157 258.508,2.066 248.780 C 3.484 241.549,4.269 239.298,5.888 237.817 L 7.106 236.702 6.766 237.863 C 4.719 244.840,3.471 254.123,4.579 254.123 C 4.871 254.123,5.110 254.055,5.110 253.972 C 5.110 249.533,7.974 240.235,10.211 237.411 C 11.849 235.342,12.017 234.397,10.685 234.746 C 9.641 235.019,9.799 234.536,11.300 232.869 C 13.046 230.929,13.237 231.484,13.304 238.678 C 13.399 248.794,15.009 257.840,16.715 257.840 C 18.079 257.840,18.583 255.411,18.585 248.827 L 18.587 242.741 19.507 244.251 C 20.063 245.162,20.804 245.761,21.378 245.761 C 21.901 245.761,22.449 246.074,22.596 246.458 C 22.743 246.841,23.288 247.154,23.808 247.154 C 24.706 247.154,24.740 246.946,24.510 242.857 C 24.288 238.923,24.327 238.648,24.966 239.605 C 25.899 241.000,26.658 240.923,27.271 239.373 L 27.776 238.095 27.825 239.345 C 27.992 243.573,29.831 239.829,30.883 233.121 C 31.295 230.491,31.829 227.099,32.068 225.583 C 32.692 221.636,33.251 221.475,33.876 225.062 C 35.343 233.490,36.702 232.243,36.702 222.467 C 36.702 214.122,37.413 214.482,37.750 222.998 C 37.991 229.086,38.390 230.894,39.493 230.894 C 39.688 230.894,39.830 229.588,39.808 227.991 C 39.780 225.875,40.070 224.405,40.879 222.574 L 41.990 220.061 42.482 221.509 C 43.603 224.810,45.226 224.355,45.831 220.570 C 46.227 218.092,46.647 218.385,47.312 221.603 C 47.924 224.567,48.495 225.126,48.971 223.229 C 49.132 222.590,49.560 222.067,49.923 222.067 C 51.171 222.067,51.336 220.879,51.600 209.988 C 51.881 198.423,52.158 196.798,54.412 193.508 C 55.812 191.466,55.835 191.536,55.030 195.373 C 52.931 205.382,51.855 225.708,53.356 226.993 C 53.906 227.464,54.355 228.116,54.355 228.442 C 54.355 229.536,55.180 229.051,55.519 227.758 C 55.703 227.056,56.647 221.777,57.616 216.028 C 58.585 210.279,59.398 205.698,59.422 205.849 C 59.446 205.999,59.976 209.762,60.601 214.211 C 61.933 223.707,62.634 227.178,63.221 227.178 C 63.455 227.178,63.649 226.394,63.652 225.436 C 63.654 224.477,64.073 221.315,64.581 218.407 C 65.161 215.096,65.478 211.364,65.431 208.417 C 65.377 205.016,65.549 203.344,66.052 202.383 C 66.693 201.161,66.775 202.077,67.071 213.767 C 67.593 234.413,67.987 234.541,71.780 215.295 C 73.933 204.370,74.525 202.099,75.796 199.877 C 76.617 198.443,77.968 195.167,78.799 192.596 L 80.311 187.921 80.341 192.139 C 80.370 196.108,80.286 196.485,78.922 198.545 C 77.812 200.221,77.383 201.518,77.092 204.083 C 76.663 207.852,77.088 225.094,77.596 224.525 C 77.776 224.323,78.502 222.590,79.208 220.674 C 80.857 216.199,81.514 215.433,82.274 217.100 C 83.020 218.737,83.624 218.245,83.624 216.000 C 83.624 214.693,83.820 214.170,84.312 214.170 C 84.690 214.170,85.517 213.177,86.148 211.963 L 87.297 209.756 87.319 212.400 C 87.342 215.213,88.023 216.311,88.666 214.573 C 88.958 213.783,89.134 214.412,89.379 217.115 C 89.873 222.558,91.103 224.092,91.768 220.093 C 92.592 215.132,93.601 214.953,93.736 219.744 C 93.931 226.689,94.940 227.267,95.973 221.027 L 96.532 217.654 96.584 220.906 C 96.696 227.810,98.219 229.532,99.451 224.148 C 100.430 219.869,101.046 219.874,101.684 224.164 C 102.219 227.761,103.247 230.430,104.098 230.430 C 104.373 230.430,104.470 229.795,104.329 228.920 C 103.977 226.733,103.886 223.688,104.061 219.977 C 104.151 218.063,104.285 217.394,104.387 218.351 C 105.358 227.483,107.237 228.149,107.793 219.557 C 108.115 214.583,108.822 211.847,109.785 211.847 C 110.086 211.847,110.109 213.741,109.852 217.305 C 108.587 234.803,110.579 237.827,114.246 223.981 C 115.828 218.011,115.920 217.813,116.283 219.624 C 118.239 229.409,120.670 227.812,120.098 217.119 C 119.883 213.114,119.928 210.918,120.225 210.918 C 120.478 210.918,120.769 212.412,120.873 214.240 C 121.054 217.457,121.121 217.615,122.979 219.264 C 124.485 220.601,125.048 221.544,125.599 223.653 C 126.625 227.583,126.829 227.373,126.829 222.386 C 126.829 217.412,126.498 217.886,130.430 217.232 L 131.940 216.980 131.947 224.286 C 131.954 231.498,132.347 233.780,133.326 232.288 C 133.578 231.905,133.791 230.023,133.800 228.107 C 133.809 226.190,134.148 222.323,134.553 219.512 C 134.958 216.702,135.356 212.625,135.437 210.453 C 135.624 205.472,135.639 205.383,136.121 206.504 C 136.340 207.015,136.535 208.400,136.553 209.582 C 136.606 213.119,137.055 214.634,138.049 214.634 C 139.084 214.634,139.837 216.310,139.837 218.613 C 139.837 220.633,140.538 220.684,141.009 218.699 C 141.291 217.508,141.494 218.413,141.973 222.997 C 143.241 235.154,144.054 238.942,145.341 238.696 C 146.228 238.525,146.479 236.839,147.241 225.885 C 147.577 221.067,147.991 218.230,148.530 217.058 L 149.324 215.331 149.575 221.416 C 149.747 225.569,150.029 227.744,150.464 228.268 C 151.434 229.437,151.915 229.193,151.931 227.526 C 151.942 226.275,152.026 226.156,152.418 226.829 C 153.049 227.912,154.091 227.859,154.704 226.713 C 155.350 225.506,156.098 225.522,156.098 226.744 C 156.098 230.320,158.282 230.318,158.687 226.741 C 158.882 225.014,159.246 223.887,159.660 223.728 C 160.023 223.588,160.637 222.718,161.023 221.793 C 161.694 220.187,161.764 220.148,162.599 220.903 C 164.248 222.396,164.674 221.380,165.618 213.705 C 165.948 211.022,166.244 209.663,166.276 210.685 C 166.409 214.903,168.328 221.781,169.285 221.470 C 170.029 221.228,170.883 217.625,170.927 214.545 C 170.983 210.536,173.048 211.303,174.012 215.692 C 174.449 217.680,175.476 217.777,176.994 215.973 L 178.317 214.402 178.761 215.563 C 179.005 216.202,179.354 218.345,179.537 220.325 C 179.919 224.450,180.462 224.965,180.906 221.622 C 181.270 218.876,182.003 218.231,183.011 219.770 C 183.412 220.382,184.426 221.787,185.265 222.893 C 186.105 223.999,187.204 226.008,187.709 227.358 C 188.214 228.708,189.168 230.317,189.829 230.934 C 193.737 234.581,195.065 242.611,192.686 248.214 C 191.954 249.938,191.803 251.020,192.012 253.044 C 192.281 255.648,192.278 255.654,190.209 257.665 C 187.281 260.512,187.278 260.527,187.369 274.861 C 187.460 289.096,187.413 289.440,185.244 290.395 C 182.564 291.574,182.942 293.129,186.286 294.676 C 189.169 296.009,195.122 301.110,195.122 302.247 C 195.122 302.593,194.443 303.053,193.612 303.268 C 190.956 303.956,192.515 306.131,195.676 306.149 C 198.386 306.164,199.357 314.371,197.833 324.382 C 197.362 327.481,197.385 328.088,198.000 328.796 C 199.601 330.637,200.177 352.842,200.464 423.693 C 200.574 450.906,200.788 503.644,200.940 540.889 C 201.172 597.710,201.102 611.055,200.507 623.816 C 199.064 654.756,198.692 681.229,199.001 730.778 C 199.871 869.872,199.873 872.960,199.143 901.267 C 198.750 916.464,198.525 928.994,198.642 929.111 C 198.934 929.402,212.142 927.418,214.227 926.769 C 216.449 926.077,216.425 926.370,216.790 895.238 C 217.077 870.731,216.824 864.145,215.580 863.730 C 215.292 863.634,215.262 863.268,215.505 862.796 C 216.682 860.509,216.925 813.845,216.039 760.508 C 215.782 745.051,215.264 706.794,214.888 675.494 C 214.085 608.627,213.915 599.017,212.939 565.157 C 212.365 545.236,212.290 534.179,212.598 514.983 C 212.816 501.440,213.006 477.816,213.020 462.485 C 213.034 447.154,213.325 425.817,213.666 415.069 C 214.056 402.755,214.179 389.093,213.997 378.135 C 213.142 326.537,213.118 320.843,213.739 317.538 C 214.076 315.749,214.362 312.752,214.376 310.878 C 214.402 307.517,214.421 307.463,215.842 306.865 C 216.634 306.532,217.402 305.949,217.547 305.569 C 217.693 305.190,218.576 304.736,219.510 304.561 C 220.904 304.299,221.337 303.935,221.921 302.528 C 222.313 301.585,223.671 298.540,224.938 295.761 C 227.138 290.938,229.938 281.816,229.388 281.266 C 229.245 281.122,228.150 281.751,226.955 282.663 C 225.761 283.575,224.608 284.321,224.393 284.321 C 224.178 284.321,223.637 284.461,223.191 284.632 C 222.567 284.871,222.478 284.790,222.804 284.283 C 223.038 283.921,223.242 282.160,223.258 280.372 C 223.282 277.826,223.625 276.265,224.840 273.188 C 227.436 266.614,226.331 262.666,223.301 267.687 C 222.638 268.787,221.663 270.209,221.136 270.848 L 220.177 272.009 220.478 265.738 C 220.962 255.671,219.868 250.543,216.440 246.816 C 213.887 244.039,214.173 239.882,217.534 230.921 C 218.861 227.383,219.407 227.053,220.511 229.123 L 221.331 230.662 221.858 223.839 C 222.317 217.880,222.547 216.704,223.670 214.548 C 224.378 213.190,225.369 211.243,225.872 210.221 C 226.375 209.199,226.948 208.049,227.144 207.666 C 227.612 206.753,229.624 205.745,230.076 206.196 C 230.270 206.391,231.072 209.362,231.857 212.799 C 233.412 219.600,233.836 220.482,234.874 219.075 C 235.750 217.889,235.731 215.607,234.843 215.267 C 233.819 214.874,233.994 213.546,235.222 212.392 C 236.772 210.935,237.348 211.136,237.686 213.251 C 238.320 217.216,240.182 215.372,241.216 209.756 C 241.391 208.801,242.982 216.447,244.067 223.461 C 244.776 228.046,244.882 227.780,245.928 218.815 C 246.330 215.366,247.017 211.394,247.456 209.988 L 248.252 207.433 248.621 210.147 C 250.129 221.241,254.093 227.200,254.156 218.467 C 254.204 211.801,254.984 210.762,256.233 215.700 C 256.707 217.571,258.224 219.156,258.771 218.351 C 260.032 216.495,257.934 202.165,256.000 199.421 C 254.390 197.137,253.863 195.244,254.550 194.206 C 255.166 193.275,255.433 193.643,256.732 197.222 C 257.349 198.922,258.125 200.584,258.457 200.916 C 258.788 201.247,259.645 204.417,260.361 207.960 C 261.731 214.746,262.626 217.001,263.574 216.055 C 264.291 215.339,264.598 199.556,263.928 197.802 C 263.421 196.472,262.021 196.437,262.021 197.754 C 262.021 198.125,261.812 198.300,261.556 198.142 C 261.301 197.984,261.092 196.576,261.092 195.014 L 261.092 192.173 262.195 193.209 C 262.919 193.889,263.748 194.197,264.602 194.103 C 266.167 193.932,267.869 196.070,268.319 198.774 C 269.210 204.119,271.519 208.455,273.269 208.068 C 273.973 207.912,273.963 207.686,273.145 205.376 C 272.130 202.509,272.273 201.921,273.591 203.535 C 274.779 204.989,275.516 204.300,275.839 201.434 C 276.220 198.050,278.373 199.986,279.019 204.295 C 279.184 205.396,279.817 206.970,280.426 207.794 C 281.034 208.618,281.898 209.865,282.346 210.566 C 283.533 212.427,283.820 212.149,283.541 209.408 C 283.229 206.346,285.734 200.781,287.287 201.083 C 288.005 201.223,288.122 201.038,287.935 200.060 C 287.809 199.404,287.886 198.977,288.104 199.112 C 288.323 199.247,288.502 200.464,288.502 201.816 C 288.502 203.786,288.765 204.634,289.827 206.086 C 292.250 209.397,294.411 210.567,292.499 207.533 C 290.844 204.907,291.224 204.262,293.062 206.580 C 296.753 211.235,296.840 210.384,293.380 203.484 C 290.889 198.517,290.385 196.980,291.248 196.980 C 291.967 196.980,293.968 199.658,294.537 201.382 C 294.835 202.283,295.271 203.020,295.506 203.020 C 296.197 203.020,296.013 200.970,294.688 193.880 C 293.786 189.060,293.581 187.070,293.947 186.703 C 295.112 185.538,295.918 188.365,296.792 196.669 C 297.267 201.194,297.778 205.018,297.926 205.166 C 298.768 206.007,299.188 204.402,299.194 200.321 C 299.202 195.597,299.355 195.017,300.729 194.510 C 301.362 194.276,301.489 193.935,301.237 193.150 C 300.529 190.952,300.977 184.247,302.114 180.023 L 303.239 175.842 303.050 184.669 C 302.946 189.524,302.633 194.265,302.355 195.205 C 301.790 197.109,302.294 199.861,303.858 203.410 C 305.277 206.630,305.748 205.692,305.923 199.291 C 306.095 193.024,307.253 183.014,308.152 180.023 C 308.648 178.373,308.737 179.129,308.943 186.760 C 309.072 191.527,309.326 194.837,309.514 194.193 C 309.701 193.554,310.390 190.579,311.046 187.581 C 312.783 179.640,313.635 177.535,313.355 181.882 C 312.873 189.331,312.719 198.745,313.046 200.697 L 313.396 202.787 313.737 200.232 C 314.282 196.151,315.503 190.277,315.892 189.866 C 316.458 189.267,317.640 202.669,317.759 211.034 C 317.765 211.481,317.964 211.847,318.201 211.847 C 318.690 211.847,318.917 209.940,319.630 199.879 C 320.106 193.175,321.607 182.303,322.130 181.780 C 322.543 181.367,322.818 183.452,323.579 192.799 C 324.348 202.245,324.597 203.949,325.204 203.949 C 325.948 203.949,326.267 202.183,326.487 196.864 C 326.758 190.266,327.516 189.606,327.552 195.935 C 327.648 212.539,329.053 214.701,331.224 201.585 C 332.404 194.461,333.854 188.215,334.218 188.688 C 334.286 188.777,334.161 191.150,333.939 193.961 C 333.282 202.286,333.551 203.151,335.208 198.033 L 336.597 193.743 337.685 204.276 C 338.896 216.002,339.257 217.673,339.621 213.240 L 339.870 210.221 340.494 212.446 C 341.511 216.070,343.001 214.070,342.508 209.744 C 342.391 208.715,342.630 206.743,343.041 205.362 C 343.451 203.981,343.802 202.105,343.822 201.193 L 343.857 199.535 344.483 201.161 C 345.386 203.506,345.307 206.531,344.251 209.988 C 343.189 213.465,342.983 218.075,343.902 217.772 C 344.222 217.667,344.820 216.343,345.232 214.830 L 345.980 212.079 346.299 217.189 C 346.734 224.179,346.983 225.614,347.972 226.828 L 348.824 227.875 349.325 226.567 C 349.600 225.847,349.826 223.663,349.826 221.712 C 349.826 216.640,350.675 217.948,351.454 224.217 C 352.658 233.914,354.657 233.889,356.133 224.158 C 356.327 222.880,356.568 222.253,356.670 222.764 C 357.138 225.116,357.850 226.713,358.429 226.713 C 359.505 226.713,359.568 226.064,358.883 222.025 C 358.518 219.876,358.093 217.108,357.938 215.874 C 357.685 213.863,357.489 213.560,356.063 212.964 C 355.188 212.598,354.472 212.093,354.472 211.840 C 354.472 210.757,355.846 211.568,358.420 214.170 C 362.504 218.297,363.745 217.827,360.701 213.306 C 359.783 211.943,358.725 210.091,358.348 209.190 L 357.663 207.550 358.909 208.531 C 360.179 209.529,360.976 209.482,360.976 208.407 C 360.976 207.540,359.528 206.381,358.216 206.198 C 357.375 206.081,356.978 205.638,356.681 204.487 C 356.056 202.059,356.347 201.988,359.798 203.725 C 364.216 205.948,364.414 205.593,360.696 202.115 L 357.529 199.153 359.601 199.471 C 360.974 199.682,361.907 200.135,362.369 200.813 C 363.601 202.622,365.738 204.916,365.973 204.682 C 366.098 204.557,365.727 202.540,365.149 200.201 L 364.098 195.948 361.724 194.843 C 360.418 194.235,359.036 193.708,358.653 193.672 C 358.269 193.635,358.688 193.477,359.582 193.319 C 361.950 192.900,361.947 187.150,359.577 183.275 C 359.108 182.509,358.409 180.523,358.025 178.862 C 357.032 174.574,356.644 173.736,354.755 171.800 C 353.833 170.855,353.078 169.761,353.078 169.370 C 353.078 168.972,352.516 168.536,351.800 168.379 C 349.558 167.888,349.431 167.791,349.279 166.462 C 349.172 165.536,348.836 165.115,348.121 165.013 C 347.149 164.875,347.140 164.822,347.869 163.552 C 348.896 161.763,348.064 160.743,345.576 160.743 C 344.098 160.743,343.686 160.541,343.346 159.645 C 343.116 159.041,342.599 158.421,342.196 158.266 C 341.222 157.892,341.265 156.162,342.276 155.025 C 343.075 154.129,343.051 154.118,340.973 154.423 C 338.383 154.803,336.494 153.706,334.259 150.523 C 333.452 149.373,332.390 148.369,331.901 148.292 C 331.411 148.215,330.521 147.908,329.924 147.610 C 329.042 147.172,328.574 147.220,327.447 147.867 C 326.683 148.305,325.871 148.664,325.643 148.664 C 324.826 148.664,323.822 143.673,323.406 137.534 C 322.743 127.751,323.752 126.920,324.932 136.278 C 325.433 140.257,325.535 140.527,326.497 140.424 C 327.251 140.342,327.526 140.559,327.526 141.237 C 327.526 143.160,328.410 142.052,328.921 139.489 C 330.087 133.631,329.955 133.689,331.451 138.370 C 332.789 142.554,333.801 144.078,333.274 141.115 C 332.434 136.388,331.093 131.464,330.514 130.984 C 329.727 130.331,329.646 127.348,330.347 124.824 L 330.839 123.050 332.808 124.824 C 333.890 125.799,335.327 127.015,336.001 127.526 C 337.129 128.381,337.302 128.995,338.180 135.229 C 339.239 142.753,339.838 144.948,340.828 144.948 C 341.370 144.948,341.427 144.488,341.131 142.509 C 340.319 137.075,341.009 130.546,342.396 130.546 C 343.109 130.546,344.110 134.835,345.868 145.412 C 348.997 164.242,349.318 160.757,347.687 125.668 C 347.169 114.521,348.858 119.569,349.630 131.475 C 350.049 137.930,350.543 138.613,350.926 133.266 C 352.011 118.106,352.933 118.449,354.227 134.495 C 354.972 143.729,355.422 145.653,356.932 146.047 C 358.531 146.466,358.776 145.747,358.232 142.237 C 357.567 137.950,357.612 134.702,358.388 131.082 C 359.852 124.258,360.395 126.582,360.652 140.767 C 360.849 151.614,361.264 153.310,363.722 153.310 C 365.460 153.310,366.396 151.859,367.751 147.060 C 369.080 142.355,369.110 143.562,367.924 153.963 C 366.805 163.763,366.855 164.503,368.442 161.672 C 369.234 160.260,369.876 159.627,370.421 159.722 C 371.000 159.823,371.547 159.168,372.359 157.399 L 373.491 154.936 373.213 156.911 C 372.913 159.045,373.205 159.313,374.528 158.116 C 375.596 157.149,375.590 157.471,374.448 162.369 C 373.476 166.540,373.236 170.035,373.922 170.035 C 374.270 170.035,376.930 163.594,377.923 160.348 C 378.709 157.778,379.108 160.817,379.562 172.839 C 380.126 187.765,380.284 189.231,381.195 187.985 C 382.040 186.830,382.719 187.367,383.046 189.447 C 384.281 197.289,385.008 199.768,386.075 199.768 C 386.663 199.768,386.649 191.554,386.051 185.873 C 385.798 183.469,385.653 181.439,385.730 181.362 C 385.807 181.285,386.802 183.345,387.941 185.940 C 390.530 191.838,390.650 191.106,388.867 180.284 C 386.719 167.246,386.975 165.963,390.772 170.710 C 392.506 172.876,393.961 173.936,393.961 173.032 C 393.961 172.352,392.167 169.478,389.221 165.434 C 385.932 160.921,383.961 157.580,384.356 157.185 C 384.787 156.754,387.921 159.934,387.921 160.803 C 387.921 161.348,388.415 161.883,389.189 162.178 C 390.780 162.782,391.157 163.373,391.166 165.273 C 391.173 166.861,391.555 167.144,392.463 166.236 C 393.206 165.494,394.331 166.558,396.784 170.322 C 397.846 171.953,398.900 173.287,399.125 173.287 C 399.988 173.287,399.482 170.972,398.316 169.586 C 396.954 167.968,397.080 167.359,398.606 168.177 C 400.642 169.266,400.078 168.100,397.057 164.970 C 395.354 163.206,393.958 161.481,393.954 161.137 C 393.951 160.793,393.536 158.211,393.031 155.401 C 392.527 152.590,392.112 150.169,392.108 150.021 C 392.105 149.873,392.573 149.769,393.148 149.789 C 394.585 149.840,394.389 147.646,392.640 144.112 C 391.919 142.655,390.961 140.065,390.510 138.356 C 389.484 134.460,388.657 133.141,388.181 134.640 C 387.326 137.332,386.866 135.318,386.253 126.205 C 385.974 122.053,385.828 121.511,384.671 120.327 C 383.969 119.609,382.741 117.879,381.942 116.482 C 380.570 114.084,380.370 113.929,378.358 113.702 C 373.948 113.205,368.372 105.256,371.196 103.493 C 373.129 102.286,370.926 99.426,368.060 99.421 C 367.369 99.420,367.015 99.140,367.015 98.593 C 367.015 98.139,366.690 97.303,366.292 96.735 C 365.433 95.509,363.654 95.316,363.859 96.471 C 363.948 96.972,363.449 97.467,362.429 97.890 C 360.864 98.538,360.863 98.537,361.163 97.343 C 361.647 95.413,360.349 95.412,356.455 97.336 L 352.912 99.088 351.833 97.834 C 350.357 96.117,350.476 95.014,352.381 92.789 C 354.589 90.210,353.707 88.565,351.452 91.057 C 350.417 92.201,349.484 92.235,348.282 91.173 C 347.382 90.378,347.368 90.395,347.655 91.880 C 348.038 93.865,346.757 95.238,344.521 95.238 C 340.620 95.238,340.614 94.506,344.483 90.267 C 347.542 86.916,348.166 85.542,346.690 85.408 C 344.775 85.235,343.957 85.625,341.643 87.814 C 339.378 89.956,337.282 90.823,337.282 89.619 C 337.282 88.640,339.088 86.586,340.722 85.706 C 342.398 84.803,343.069 83.878,342.599 83.117 C 341.771 81.778,337.857 84.197,332.024 89.653 C 328.985 92.497,328.041 92.904,329.849 90.592 C 330.349 89.954,330.762 89.042,330.768 88.568 C 330.791 86.598,326.005 89.109,325.755 91.197 C 325.676 91.862,325.249 92.521,324.806 92.661 C 324.364 92.802,323.406 94.118,322.677 95.587 L 321.352 98.258 320.743 96.864 C 320.409 96.098,320.150 94.634,320.168 93.612 C 320.186 92.590,320.296 92.120,320.413 92.567 C 320.772 93.941,321.636 93.462,323.693 90.746 C 328.171 84.838,324.684 83.774,319.382 89.431 C 316.218 92.806,315.061 93.663,315.615 92.218 C 316.016 91.173,315.055 91.378,313.526 92.664 C 310.933 94.846,306.268 94.845,306.816 92.663 C 307.399 90.341,305.273 92.164,302.743 96.156 C 302.181 97.044,300.993 98.235,300.105 98.801 C 297.153 100.684,295.935 101.804,295.935 102.635 C 295.935 104.293,293.503 105.661,292.979 104.297 C 292.052 101.881,291.075 103.636,290.144 109.387 C 289.369 114.171,287.108 118.166,287.108 114.750 C 287.108 114.239,287.321 113.821,287.581 113.821 C 287.863 113.821,288.026 112.504,287.986 110.555 C 287.936 108.119,288.111 107.076,288.675 106.453 C 290.415 104.531,288.858 102.451,286.654 103.753 L 285.331 104.534 284.942 101.631 L 284.553 98.728 282.639 101.427 L 280.725 104.126 278.109 100.975 C 276.671 99.242,275.494 97.364,275.494 96.802 C 275.494 96.240,275.083 94.822,274.581 93.651 C 273.534 91.207,273.751 91.014,275.579 92.765 C 278.408 95.475,277.619 91.384,272.771 78.204 C 271.001 73.392,269.013 67.735,268.354 65.635 C 266.306 59.111,265.983 58.537,264.367 58.537 C 263.269 58.537,262.950 58.331,262.950 57.625 C 262.950 57.124,262.114 55.886,261.092 54.874 C 259.914 53.709,259.233 52.611,259.233 51.878 C 259.233 47.971,250.379 41.139,247.724 42.998 C 246.764 43.671,246.584 43.637,245.081 42.490 C 243.794 41.508,242.506 41.125,238.708 40.595 C 235.265 40.113,233.678 39.675,232.972 39.012 C 231.603 37.726,229.036 37.895,229.036 39.270 C 229.036 39.606,228.344 40.110,227.497 40.389 C 224.839 41.267,221.432 45.448,220.761 48.657 C 220.458 50.104,220.199 50.407,219.257 50.407 C 218.289 50.407,218.100 50.651,217.993 52.033 C 217.686 56.018,216.237 56.639,215.364 53.160 C 214.880 51.232,214.170 51.921,214.170 54.317 C 214.170 58.215,213.514 58.982,212.153 56.678 C 210.525 53.923,209.361 55.114,208.845 60.064 C 208.665 61.799,208.273 63.422,207.975 63.670 C 207.677 63.918,206.874 64.540,206.191 65.051 C 205.508 65.563,204.816 66.588,204.653 67.330 C 204.490 68.072,204.032 68.804,203.636 68.956 C 203.177 69.132,203.005 69.580,203.163 70.184 C 203.347 70.887,203.213 71.096,202.651 70.988 C 201.458 70.758,199.907 68.068,199.565 65.634 C 199.110 62.395,198.379 60.330,197.177 58.888 C 196.593 58.186,196.012 57.245,195.886 56.797 C 194.141 50.605,192.915 47.420,190.976 44.046 C 188.815 40.285,188.674 39.849,188.929 37.697 C 189.758 30.693,186.434 24.527,183.508 27.642 C 182.033 29.212,181.313 29.105,180.394 27.178 C 179.463 25.224,178.867 25.090,178.847 26.829 C 178.833 28.053,178.803 28.069,178.150 27.205 C 177.775 26.709,177.468 25.389,177.468 24.271 C 177.468 20.950,175.937 19.393,174.273 21.022 C 173.357 21.919,174.604 19.159,175.952 17.305 C 177.221 15.562,177.752 15.423,178.165 16.725 C 178.722 18.480,179.326 17.651,179.326 15.132 C 179.326 9.350,176.428 9.797,173.102 16.091 C 171.251 19.593,168.446 23.177,167.943 22.681 C 167.236 21.984,168.272 19.453,169.449 19.005 C 170.829 18.481,170.779 13.750,169.343 8.963 C 168.480 6.089,168.251 5.911,165.468 5.967 C 163.102 6.014,162.362 5.630,158.280 2.239 C 155.431 -0.127,154.109 -0.514,153.371 0.803 C 152.945 1.565,152.875 1.565,152.034 0.803 C 150.766 -0.344,149.582 -0.173,147.844 1.407 M162.718 15.085 C 162.444 16.517,161.430 17.461,160.968 16.713 C 160.791 16.426,161.122 15.684,161.705 15.064 C 163.004 13.681,162.986 13.681,162.718 15.085 M171.893 28.107 C 171.893 28.490,171.580 28.804,171.196 28.804 C 170.813 28.804,170.499 28.490,170.499 28.107 C 170.499 27.724,170.813 27.410,171.196 27.410 C 171.580 27.410,171.893 27.724,171.893 28.107 M185.366 35.770 C 185.366 41.951,183.600 45.482,181.415 43.668 C 180.367 42.799,180.561 42.337,182.326 41.496 C 184.471 40.473,184.578 39.985,183.422 36.523 L 182.434 33.563 183.471 32.107 C 184.999 29.961,185.366 30.670,185.366 35.770 M145.526 31.707 C 145.827 32.524,145.417 33.507,144.908 33.193 C 144.361 32.854,144.352 31.127,144.898 31.127 C 145.126 31.127,145.409 31.388,145.526 31.707 M137.979 35.459 C 137.979 35.798,137.456 36.566,136.818 37.166 C 135.475 38.427,135.187 37.578,136.379 35.876 C 137.186 34.725,137.979 34.518,137.979 35.459 M174.129 45.035 C 174.245 45.383,174.071 45.557,173.722 45.441 C 173.387 45.330,173.021 44.964,172.909 44.628 C 172.793 44.280,172.967 44.106,173.316 44.222 C 173.651 44.334,174.017 44.699,174.129 45.035 M187.689 49.218 C 187.689 49.766,186.783 50.352,186.450 50.019 C 186.117 49.687,186.703 48.780,187.252 48.780 C 187.492 48.780,187.689 48.977,187.689 49.218 M190.920 56.258 C 190.935 57.784,191.206 58.632,191.870 59.233 C 193.152 60.394,193.040 61.039,191.303 62.500 L 189.807 63.759 189.405 62.193 C 188.905 60.242,187.825 59.001,186.630 59.001 C 185.848 59.001,185.758 58.784,186.011 57.516 C 186.443 55.355,187.645 53.662,188.289 54.306 C 189.189 55.206,189.546 54.868,189.585 53.078 L 189.623 51.336 190.261 52.729 C 190.612 53.496,190.908 55.084,190.920 56.258 M185.118 63.531 C 181.324 68.666,179.326 69.864,179.326 67.002 C 179.326 63.886,181.327 61.826,184.376 61.803 L 186.405 61.789 185.118 63.531 M196.820 63.435 C 196.971 63.829,196.970 64.277,196.817 64.430 C 196.415 64.832,195.083 63.621,195.387 63.130 C 195.783 62.488,196.517 62.644,196.820 63.435 M181.185 65.273 C 181.185 66.167,181.394 66.899,181.649 66.899 C 181.905 66.899,182.114 66.167,182.114 65.273 C 182.114 64.379,181.905 63.647,181.649 63.647 C 181.394 63.647,181.185 64.379,181.185 65.273 M264.344 66.950 C 264.344 67.951,263.461 67.229,263.002 65.854 L 262.499 64.344 263.421 65.441 C 263.929 66.044,264.344 66.723,264.344 66.950 M194.101 68.027 C 194.644 69.027,194.878 70.597,194.883 73.277 L 194.890 77.100 193.519 75.730 L 192.148 74.360 193.170 72.541 C 193.733 71.540,194.193 70.593,194.193 70.436 C 194.193 69.963,192.411 70.116,192.102 70.616 C 191.392 71.764,190.476 71.037,190.476 69.325 C 190.476 65.478,192.351 64.806,194.101 68.027 M197.909 68.582 C 197.909 69.199,197.783 69.231,197.213 68.757 C 196.829 68.439,196.516 68.100,196.516 68.004 C 196.516 67.907,196.829 67.828,197.213 67.828 C 197.596 67.828,197.909 68.167,197.909 68.582 M189.363 72.251 C 190.098 73.371,190.069 73.546,188.689 76.349 C 185.874 82.067,183.831 82.321,184.844 76.828 C 185.850 71.366,187.614 69.580,189.363 72.251 M258.556 77.151 C 259.100 78.032,258.306 78.250,257.497 77.440 C 256.773 76.716,256.771 76.655,257.480 76.655 C 257.903 76.655,258.387 76.878,258.556 77.151 M182.578 78.224 C 182.578 78.576,182.265 79.124,181.882 79.443 C 181.292 79.932,181.185 79.833,181.185 78.803 C 181.185 78.029,181.439 77.584,181.882 77.584 C 182.265 77.584,182.578 77.872,182.578 78.224 M151.941 80.139 C 151.904 80.829,150.865 80.702,150.624 79.979 C 150.494 79.588,150.706 79.414,151.191 79.514 C 151.617 79.603,151.954 79.884,151.941 80.139 M172.358 81.765 C 172.631 82.276,172.680 82.695,172.467 82.695 C 171.973 82.695,170.964 81.696,170.964 81.208 C 170.964 80.487,171.867 80.848,172.358 81.765 M265.702 82.884 C 266.322 83.546,266.599 84.088,266.319 84.088 C 265.649 84.088,262.950 81.809,262.950 81.243 C 262.950 80.608,264.360 81.449,265.702 82.884 M189.694 86.013 C 187.852 88.363,187.431 88.696,187.311 87.896 C 187.059 86.210,189.651 83.478,191.785 83.180 C 191.865 83.168,190.925 84.443,189.694 86.013 M202.002 83.972 C 201.814 84.951,200.989 84.890,200.779 83.881 C 200.691 83.460,200.947 83.159,201.394 83.159 C 201.872 83.159,202.100 83.464,202.002 83.972 M153.661 84.437 C 153.921 85.227,153.213 85.167,152.121 84.307 C 151.248 83.619,151.255 83.600,152.345 83.726 C 152.963 83.798,153.556 84.117,153.661 84.437 M197.909 85.250 C 198.699 86.201,197.508 86.212,196.256 85.264 C 195.372 84.596,195.374 84.582,196.343 84.568 C 196.886 84.559,197.591 84.866,197.909 85.250 M159.611 87.373 C 160.060 87.869,160.294 88.409,160.129 88.574 C 159.787 88.917,156.098 86.477,156.098 85.908 C 156.098 85.297,158.723 86.392,159.611 87.373 M211.595 88.383 C 212.047 89.028,212.140 89.488,211.838 89.589 C 211.180 89.808,209.988 88.773,209.988 87.980 C 209.988 87.014,210.775 87.211,211.595 88.383 M271.080 87.805 C 270.922 88.060,270.479 88.269,270.096 88.269 C 269.713 88.269,269.528 88.060,269.686 87.805 C 269.844 87.549,270.287 87.340,270.670 87.340 C 271.054 87.340,271.238 87.549,271.080 87.805 M170.964 90.711 C 170.964 90.997,170.337 90.630,169.570 89.895 C 168.804 89.161,168.177 88.481,168.177 88.383 C 168.177 88.286,168.804 88.653,169.570 89.199 C 170.337 89.744,170.964 90.425,170.964 90.711 M249.994 91.655 C 249.615 92.034,249.477 91.982,249.477 91.460 C 249.477 90.536,250.102 89.911,250.333 90.604 C 250.431 90.898,250.278 91.371,249.994 91.655 M174.680 91.753 C 175.022 92.391,175.163 93.052,174.994 93.221 C 174.583 93.633,172.822 92.008,172.822 91.217 C 172.822 90.173,174.019 90.518,174.680 91.753 M155.022 91.580 L 156.330 92.103 155.008 92.481 C 153.527 92.904,151.238 92.244,151.684 91.522 C 152.062 90.909,153.403 90.932,155.022 91.580 M336.398 94.193 C 335.873 95.138,333.638 97.561,333.292 97.561 C 333.163 97.561,333.704 96.620,334.495 95.470 C 335.885 93.449,337.363 92.457,336.398 94.193 M162.975 95.546 C 164.954 96.795,164.949 97.722,162.959 98.199 C 161.828 98.470,161.604 98.314,160.893 96.755 C 160.454 95.793,160.007 94.827,159.900 94.609 C 159.643 94.087,161.616 94.688,162.975 95.546 M176.074 97.404 L 177.236 98.601 175.842 98.277 C 174.311 97.921,171.429 95.917,171.429 95.208 C 171.429 94.496,174.799 96.089,176.074 97.404 M148.200 98.213 C 148.200 98.542,147.782 99.189,147.271 99.652 C 146.317 100.514,146.081 100.221,146.333 98.490 C 146.533 97.116,148.200 96.869,148.200 98.213 M191.506 99.505 C 190.878 100.132,190.303 99.146,190.699 98.119 C 190.979 97.391,191.041 97.396,191.485 98.186 C 191.803 98.753,191.810 99.201,191.506 99.505 M154.781 99.063 C 154.535 99.310,153.866 99.363,153.295 99.182 C 152.570 98.952,152.432 98.746,152.836 98.496 C 153.647 97.995,155.353 98.492,154.781 99.063 M204.791 98.926 C 204.907 99.274,204.733 99.448,204.384 99.332 C 204.049 99.220,203.683 98.855,203.571 98.519 C 203.455 98.171,203.630 97.997,203.978 98.113 C 204.313 98.224,204.679 98.590,204.791 98.926 M305.286 101.868 C 304.513 102.641,304.075 101.873,304.795 101.006 C 305.230 100.481,305.482 100.418,305.610 100.803 C 305.712 101.109,305.566 101.588,305.286 101.868 M365.168 101.540 C 365.960 103.624,365.735 105.041,364.867 103.438 C 364.253 102.305,363.921 102.141,362.563 102.299 C 360.728 102.514,360.541 102.099,362.008 101.072 C 363.520 100.013,364.651 100.180,365.168 101.540 M175.886 101.810 C 176.765 102.800,176.764 102.803,175.752 102.272 C 174.623 101.680,173.927 100.813,174.581 100.813 C 174.812 100.813,175.399 101.262,175.886 101.810 M189.547 100.988 C 189.547 101.085,189.233 101.424,188.850 101.742 C 188.279 102.216,188.153 102.184,188.153 101.567 C 188.153 101.152,188.467 100.813,188.850 100.813 C 189.233 100.813,189.547 100.892,189.547 100.988 M301.038 101.755 C 300.761 102.273,300.325 102.568,300.070 102.411 C 299.771 102.226,299.800 101.891,300.150 101.469 C 300.973 100.477,301.612 100.684,301.038 101.755 M150.058 103.461 C 150.058 104.395,149.924 104.581,149.532 104.189 C 149.242 103.900,149.131 103.335,149.285 102.935 C 149.710 101.827,150.058 102.063,150.058 103.461 M349.719 103.224 C 349.432 104.086,347.095 105.670,346.697 105.272 C 346.502 105.076,346.928 104.410,347.645 103.793 C 349.041 102.591,350.019 102.323,349.719 103.224 M352.401 105.902 C 351.763 106.606,348.897 107.511,348.897 107.007 C 348.897 106.925,349.781 106.218,350.862 105.435 C 352.864 103.984,353.862 104.287,352.401 105.902 M176.670 105.619 C 178.137 106.232,179.647 107.616,179.265 107.998 C 179.007 108.256,175.618 106.679,174.448 105.757 C 173.210 104.780,174.476 104.702,176.670 105.619 M164.670 107.392 C 166.768 108.347,165.186 111.158,161.473 113.072 C 159.691 113.991,159.350 113.706,159.350 111.301 C 159.350 107.699,161.644 106.013,164.670 107.392 M362.892 111.323 C 363.414 111.968,362.983 113.200,362.118 113.532 C 361.178 113.893,360.670 110.801,361.504 109.795 C 362.086 109.093,362.151 109.103,362.303 109.916 C 362.395 110.403,362.659 111.036,362.892 111.323 M170.253 111.057 C 169.894 111.637,168.773 111.622,168.409 111.034 C 167.879 110.176,168.636 109.605,169.611 110.127 C 170.114 110.396,170.403 110.814,170.253 111.057 M177.150 110.174 C 178.516 110.892,180.894 112.892,180.382 112.892 C 179.865 112.892,175.610 110.209,175.610 109.882 C 175.610 109.509,176.041 109.591,177.150 110.174 M176.827 114.811 C 181.352 116.504,180.812 117.602,176.074 116.342 C 175.691 116.240,174.750 116.571,173.984 117.076 C 172.181 118.266,167.965 118.372,167.333 117.243 C 167.034 116.708,166.479 116.548,165.452 116.698 C 163.651 116.963,163.651 116.917,165.452 115.635 C 168.881 113.193,171.915 112.973,176.827 114.811 M224.303 115.650 C 224.419 115.999,224.245 116.173,223.897 116.057 C 223.561 115.945,223.195 115.579,223.084 115.244 C 222.967 114.895,223.142 114.721,223.490 114.837 C 223.825 114.949,224.191 115.315,224.303 115.650 M380.023 118.754 C 380.023 119.410,379.821 119.791,379.559 119.628 C 379.303 119.470,379.094 118.819,379.094 118.180 C 379.094 117.524,379.296 117.143,379.559 117.305 C 379.814 117.463,380.023 118.115,380.023 118.754 M339.605 118.201 C 339.605 118.565,339.971 118.970,340.418 119.099 C 340.890 119.236,340.746 119.299,340.074 119.250 C 338.959 119.167,338.037 117.538,339.106 117.538 C 339.381 117.538,339.605 117.836,339.605 118.201 M332.636 120.120 C 332.636 120.795,332.435 121.185,332.172 121.022 C 331.916 120.864,331.707 120.329,331.707 119.833 C 331.707 119.337,331.916 118.931,332.172 118.931 C 332.427 118.931,332.636 119.466,332.636 120.120 M344.948 120.945 C 344.948 122.156,344.037 122.080,343.863 120.854 C 343.757 120.102,343.903 119.822,344.328 119.964 C 344.669 120.077,344.948 120.519,344.948 120.945 M172.764 121.430 C 171.572 122.479,166.066 123.945,165.488 123.366 C 164.629 122.507,169.758 120.412,172.822 120.370 L 173.984 120.355 172.764 121.430 M181.185 121.735 C 181.185 122.351,180.556 122.298,179.884 121.626 C 179.007 120.749,179.232 120.242,180.256 120.790 C 180.767 121.063,181.185 121.489,181.185 121.735 M322.416 123.860 C 322.416 124.496,322.735 125.634,323.125 126.388 C 323.889 127.866,323.399 128.211,322.217 127.028 C 321.404 126.215,321.157 121.925,321.951 122.416 C 322.207 122.574,322.416 123.224,322.416 123.860 M318.172 123.449 C 318.766 124.510,317.889 126.372,317.263 125.382 C 316.716 124.520,316.730 122.648,317.282 122.648 C 317.525 122.648,317.926 123.009,318.172 123.449 M359.117 123.753 C 359.117 124.105,358.804 124.653,358.420 124.971 C 357.831 125.460,357.724 125.361,357.724 124.331 C 357.724 123.558,357.978 123.113,358.420 123.113 C 358.804 123.113,359.117 123.401,359.117 123.753 M308.479 125.725 C 308.479 126.342,308.352 126.374,307.782 125.900 C 307.398 125.582,307.085 125.243,307.085 125.146 C 307.085 125.050,307.398 124.971,307.782 124.971 C 308.165 124.971,308.479 125.310,308.479 125.725 M344.419 125.668 C 344.729 126.475,344.329 127.758,343.768 127.758 C 343.557 127.758,343.252 127.342,343.091 126.833 C 342.597 125.279,343.848 124.181,344.419 125.668 M381.455 125.436 C 381.690 125.436,381.882 125.645,381.882 125.900 C 381.882 126.573,381.261 126.471,380.228 125.630 C 379.403 124.958,379.399 124.918,380.177 125.165 C 380.645 125.314,381.220 125.436,381.455 125.436 M331.243 126.261 C 331.243 126.716,331.530 127.499,331.882 128.003 C 332.584 129.012,335.752 140.326,337.276 147.271 C 338.502 152.857,338.644 153.310,339.172 153.310 C 340.132 153.310,337.737 137.337,335.871 131.295 C 334.569 127.079,331.243 123.462,331.243 126.261 M249.011 128.913 C 249.605 131.773,249.249 133.062,248.245 131.689 C 247.594 130.799,247.412 128.373,247.901 127.100 C 248.330 125.981,248.440 126.159,249.011 128.913 M147.453 128.025 C 147.108 129.399,147.802 130.333,148.865 129.925 C 150.005 129.488,149.840 126.829,148.673 126.829 C 148.072 126.829,147.649 127.244,147.453 128.025 M262.588 128.697 C 262.700 129.690,262.509 129.869,261.206 129.995 L 259.694 130.140 260.689 128.455 C 261.732 126.686,262.371 126.768,262.588 128.697 M240.252 129.506 C 243.227 133.046,244.146 136.585,242.090 136.585 C 241.110 136.585,240.895 136.112,240.398 132.869 C 240.013 130.351,239.473 129.196,238.157 128.076 L 237.166 127.231 238.161 127.717 C 238.709 127.984,239.649 128.789,240.252 129.506 M317.736 129.446 C 319.987 132.309,322.001 141.284,321.043 144.187 C 320.272 146.524,319.806 146.302,319.469 143.435 C 319.312 142.093,318.573 138.800,317.828 136.118 C 315.521 127.817,315.505 126.610,317.736 129.446 M381.882 129.384 C 381.882 129.768,381.542 130.081,381.128 130.081 C 380.510 130.081,380.479 129.955,380.952 129.384 C 381.270 129.001,381.610 128.688,381.706 128.688 C 381.803 128.688,381.882 129.001,381.882 129.384 M366.833 131.281 C 366.677 131.685,366.551 132.249,366.551 132.535 C 366.551 132.892,366.401 132.905,366.071 132.575 C 365.524 132.029,365.948 130.546,366.650 130.546 C 366.905 130.546,366.988 130.877,366.833 131.281 M238.042 132.591 C 238.985 134.578,238.979 134.727,237.956 134.727 C 236.834 134.727,236.005 133.832,236.005 132.621 C 236.005 130.512,237.048 130.496,238.042 132.591 M308.796 132.753 C 309.457 133.455,310.621 135.034,311.383 136.260 C 313.015 138.888,313.327 138.842,312.687 136.066 C 312.066 133.373,312.051 131.145,312.657 131.751 C 313.572 132.666,313.769 137.754,312.953 139.391 C 312.536 140.226,312.195 141.609,312.195 142.464 C 312.195 145.402,307.729 143.189,305.307 139.052 C 304.624 137.886,303.281 136.046,302.323 134.964 C 300.401 132.794,300.147 131.940,301.423 131.940 C 302.539 131.940,304.195 133.764,306.798 137.863 C 308.291 140.214,309.218 141.231,309.869 141.231 C 311.233 141.231,311.033 140.502,308.468 136.125 C 307.196 133.955,306.156 132.021,306.156 131.827 C 306.156 131.028,307.674 131.561,308.796 132.753 M249.013 135.481 C 249.013 136.098,248.887 136.130,248.316 135.656 C 247.933 135.338,247.619 134.999,247.619 134.902 C 247.619 134.806,247.933 134.727,248.316 134.727 C 248.699 134.727,249.013 135.066,249.013 135.481 M300.586 137.525 C 301.585 139.392,299.614 138.128,298.505 136.191 C 298.215 135.685,298.334 135.664,299.120 136.085 C 299.656 136.372,300.316 137.020,300.586 137.525 M164.925 136.818 C 165.398 137.388,165.366 137.515,164.749 137.515 C 164.335 137.515,163.995 137.201,163.995 136.818 C 163.995 136.434,164.074 136.121,164.171 136.121 C 164.267 136.121,164.606 136.434,164.925 136.818 M160.683 142.883 C 159.827 144.937,159.539 142.737,160.359 140.410 L 160.970 138.676 161.112 140.096 C 161.190 140.877,160.997 142.131,160.683 142.883 M255.052 139.788 C 255.052 140.016,254.739 140.323,254.355 140.470 C 253.647 140.742,253.404 140.247,253.968 139.683 C 254.412 139.239,255.052 139.301,255.052 139.788 M248.998 143.410 C 249.021 145.023,248.226 145.080,247.908 143.488 C 247.412 141.009,247.520 140.459,248.301 141.491 C 248.676 141.987,248.990 142.851,248.998 143.410 M238.055 142.906 C 238.457 143.060,238.683 143.354,238.557 143.559 C 238.264 144.033,236.469 143.582,236.469 143.035 C 236.469 142.556,237.025 142.511,238.055 142.906 M307.782 144.019 C 308.308 144.601,308.411 144.948,308.055 144.948 C 307.202 144.948,305.691 144.047,305.691 143.538 C 305.691 142.768,306.902 143.047,307.782 144.019 M167.530 144.749 C 167.904 146.239,167.161 147.124,166.353 146.151 C 165.749 145.423,166.075 143.554,166.805 143.554 C 167.039 143.554,167.365 144.092,167.530 144.749 M372.121 146.212 C 371.619 146.994,371.605 146.993,371.858 146.187 C 372.005 145.719,372.154 144.883,372.189 144.329 C 372.252 143.323,372.252 143.323,372.452 144.354 C 372.561 144.921,372.413 145.757,372.121 146.212 M254.116 146.485 C 254.111 147.613,254.001 147.801,253.659 147.271 C 253.063 146.349,253.063 144.347,253.659 144.715 C 253.914 144.873,254.120 145.670,254.116 146.485 M277.518 146.900 C 277.792 147.335,277.856 147.850,277.662 148.045 C 277.166 148.541,275.758 147.568,275.568 146.598 C 275.364 145.561,276.817 145.786,277.518 146.900 M296.143 152.555 C 297.229 155.159,297.700 156.841,297.422 157.119 C 297.143 157.398,296.865 156.945,296.667 155.890 C 296.495 154.971,295.765 153.544,295.046 152.719 C 293.406 150.839,292.985 149.519,293.418 147.609 C 293.751 146.135,293.763 146.129,294.090 147.271 C 294.273 147.909,295.197 150.287,296.143 152.555 M388.421 147.567 C 389.192 148.406,389.364 148.857,388.966 148.999 C 388.612 149.126,388.369 150.140,388.343 151.607 L 388.301 154.007 387.420 151.220 C 385.945 146.548,386.298 145.258,388.421 147.567 M306.368 147.674 C 306.520 148.151,307.057 148.915,307.561 149.372 C 308.215 149.964,308.479 150.801,308.479 152.289 L 308.479 154.377 307.337 152.798 C 305.360 150.065,304.804 148.838,305.073 147.806 C 305.395 146.575,306.000 146.514,306.368 147.674 M316.664 149.040 C 316.263 149.442,315.795 149.631,315.624 149.461 C 315.179 149.015,316.393 147.691,316.938 148.028 C 317.210 148.195,317.099 148.606,316.664 149.040 M312.911 148.695 C 313.339 149.387,312.843 149.763,311.953 149.422 C 311.543 149.264,311.337 148.925,311.496 148.668 C 311.873 148.058,312.525 148.071,312.911 148.695 M228.361 150.358 C 229.478 151.563,229.871 152.846,229.123 152.846 C 228.549 152.846,226.249 150.316,226.249 149.684 C 226.249 148.766,227.153 149.054,228.361 150.358 M234.398 151.018 C 234.904 151.837,234.370 151.952,233.416 151.229 C 232.630 150.635,232.616 150.550,233.306 150.537 C 233.738 150.529,234.229 150.746,234.398 151.018 M269.818 152.768 C 269.957 153.190,269.682 153.339,268.962 153.233 C 268.378 153.148,267.809 152.799,267.697 152.458 C 267.558 152.037,267.832 151.888,268.553 151.993 C 269.136 152.079,269.706 152.428,269.818 152.768 M117.468 157.143 C 118.145 161.988,118.139 162.725,117.426 162.487 C 115.812 161.949,115.023 153.310,116.588 153.310 C 116.777 153.310,117.173 155.035,117.468 157.143 M394.973 154.770 C 395.055 155.628,395.331 156.278,395.587 156.214 C 396.277 156.041,396.149 153.653,395.437 153.415 C 394.992 153.267,394.864 153.639,394.973 154.770 M330.901 157.304 C 331.353 157.757,330.732 158.885,330.032 158.885 C 329.676 158.885,329.384 158.467,329.384 157.956 C 329.384 157.081,330.289 156.693,330.901 157.304 M243.381 161.870 C 244.111 164.771,244.065 165.286,243.154 164.375 C 242.314 163.535,241.600 159.020,242.383 159.504 C 242.645 159.666,243.094 160.731,243.381 161.870 M334.959 159.982 C 334.959 160.329,333.705 161.282,332.172 162.100 C 328.760 163.918,328.665 163.718,331.768 161.247 C 334.304 159.228,334.959 158.968,334.959 159.982 M227.396 162.160 C 227.060 162.703,226.672 162.708,225.841 162.182 C 224.814 161.531,225.663 160.646,226.754 161.230 C 227.257 161.499,227.546 161.918,227.396 162.160 M131.010 164.487 C 131.010 166.342,130.415 166.929,129.899 165.583 C 129.529 164.620,129.538 162.835,129.914 162.459 C 130.533 161.840,131.010 162.723,131.010 164.487 M233.566 165.260 C 235.606 166.898,236.037 167.712,234.863 167.712 C 234.029 167.712,230.430 164.353,230.430 163.575 C 230.430 162.890,230.986 163.189,233.566 165.260 M97.041 165.223 C 96.681 165.658,96.205 165.570,94.976 164.846 C 92.936 163.642,92.962 163.604,95.445 164.180 C 96.982 164.537,97.390 164.803,97.041 165.223 M154.704 164.635 C 154.704 165.597,153.458 166.521,153.191 165.757 C 153.076 165.427,153.079 164.895,153.196 164.576 C 153.486 163.788,154.704 163.836,154.704 164.635 M86.546 165.389 C 86.706 166.002,87.179 166.318,87.937 166.318 C 88.568 166.318,89.372 166.665,89.722 167.088 C 90.305 167.791,90.165 167.836,88.105 167.604 C 85.402 167.300,84.089 166.276,84.998 165.180 C 85.801 164.212,86.254 164.273,86.546 165.389 M121.118 167.019 C 122.418 169.314,122.450 170.035,121.254 170.035 C 120.008 170.035,120.061 171.300,121.370 172.792 L 122.416 173.984 121.092 172.822 C 119.013 170.998,117.442 167.561,118.007 166.074 C 118.647 164.390,119.833 164.750,121.118 167.019 M334.959 165.373 C 334.959 165.619,334.541 166.045,334.030 166.318 C 333.007 166.866,332.782 166.359,333.659 165.482 C 334.330 164.810,334.959 164.757,334.959 165.373 M66.267 166.165 C 66.216 166.772,66.863 167.052,69.222 167.447 C 73.399 168.145,78.265 171.018,76.451 171.714 C 72.997 173.040,63.795 168.244,65.257 165.880 C 65.724 165.124,66.339 165.298,66.267 166.165 M127.589 167.950 C 128.827 170.656,128.882 172.646,127.652 170.267 C 126.846 168.708,125.855 165.389,126.196 165.389 C 126.317 165.389,126.944 166.542,127.589 167.950 M140.141 168.315 C 140.952 169.882,140.567 171.762,139.600 170.960 C 139.013 170.473,137.515 166.692,137.515 165.699 C 137.515 164.994,139.390 166.862,140.141 168.315 M81.320 168.639 C 82.225 168.890,83.677 169.621,84.546 170.262 C 85.491 170.959,86.751 171.429,87.678 171.429 C 89.365 171.429,92.936 173.056,94.778 174.664 L 95.935 175.675 93.923 175.398 C 92.816 175.247,90.621 174.598,89.045 173.958 C 87.469 173.317,84.756 172.558,83.018 172.271 C 80.277 171.818,79.767 171.576,79.185 170.450 C 78.816 169.736,78.148 168.939,77.700 168.678 C 76.586 168.029,79.029 168.002,81.320 168.639 M331.166 170.007 C 331.354 171.292,330.530 170.914,330.174 169.551 C 330.013 168.937,330.119 168.653,330.466 168.767 C 330.766 168.866,331.080 169.423,331.166 170.007 M108.442 170.924 C 109.551 172.150,109.214 172.566,107.873 171.626 C 106.476 170.648,105.488 168.840,106.706 169.492 C 107.176 169.743,107.957 170.388,108.442 170.924 M291.289 172.693 C 291.289 173.663,291.020 174.348,290.572 174.520 C 289.485 174.938,289.356 174.542,289.709 171.875 C 290.083 169.060,291.289 169.685,291.289 172.693 M314.518 171.893 C 314.518 173.017,313.767 173.492,313.420 172.587 C 313.079 171.700,313.556 170.424,314.102 170.762 C 314.331 170.903,314.518 171.412,314.518 171.893 M125.436 172.695 C 125.436 174.151,125.213 173.983,124.785 172.203 C 124.578 171.339,124.635 170.989,124.952 171.185 C 125.218 171.349,125.436 172.029,125.436 172.695 M345.966 172.235 C 345.570 172.631,345.019 172.777,344.690 172.574 C 344.254 172.305,344.317 172.065,344.946 171.605 C 346.038 170.806,346.877 171.324,345.966 172.235 M95.898 172.883 C 95.531 173.476,94.774 172.908,94.774 172.041 C 94.774 171.451,94.903 171.422,95.465 171.889 C 95.846 172.205,96.040 172.652,95.898 172.883 M252.739 172.601 C 253.062 172.991,253.197 173.439,253.039 173.597 C 252.702 173.934,251.336 172.895,251.336 172.301 C 251.336 171.661,252.093 171.823,252.739 172.601 M102.120 173.258 C 102.236 173.606,102.062 173.780,101.713 173.664 C 101.378 173.553,101.012 173.187,100.900 172.851 C 100.784 172.503,100.958 172.329,101.307 172.445 C 101.642 172.557,102.008 172.922,102.120 173.258 M48.330 174.655 C 47.775 175.692,46.922 175.941,46.922 175.066 C 46.922 174.294,48.492 172.653,48.683 173.225 C 48.770 173.486,48.611 174.130,48.330 174.655 M78.978 174.913 C 82.154 175.765,82.230 175.765,82.230 174.913 C 82.230 174.042,83.494 174.042,85.017 174.913 C 86.171 175.573,86.167 175.577,84.321 175.604 C 83.298 175.619,81.208 176.149,79.675 176.780 C 76.016 178.287,72.938 177.471,72.938 174.993 C 72.938 174.724,73.200 174.847,73.519 175.268 C 74.066 175.987,76.191 177.003,77.150 177.003 C 77.832 177.003,77.659 175.998,76.815 175.066 C 75.897 174.051,75.793 174.058,78.978 174.913 M139.373 176.867 C 139.373 177.965,138.226 177.265,138.051 176.060 C 137.910 175.097,137.984 175.035,138.631 175.573 C 139.039 175.911,139.373 176.494,139.373 176.867 M131.510 177.131 C 131.452 177.687,130.815 177.579,130.616 176.980 C 130.513 176.674,130.681 176.506,130.987 176.609 C 131.294 176.711,131.529 176.946,131.510 177.131 M276.205 178.306 C 275.892 178.618,274.564 177.459,274.564 176.875 C 274.564 176.611,274.984 176.774,275.496 177.238 C 276.009 177.702,276.328 178.183,276.205 178.306 M305.736 178.731 C 305.314 179.457,305.253 179.411,305.241 178.358 C 305.233 177.698,305.383 177.000,305.575 176.807 C 306.133 176.244,306.265 177.822,305.736 178.731 M247.619 177.933 C 247.939 178.530,247.951 178.862,247.652 178.862 C 247.396 178.862,246.963 178.444,246.690 177.933 C 246.370 177.335,246.358 177.003,246.657 177.003 C 246.913 177.003,247.346 177.422,247.619 177.933 M296.639 181.766 C 297.016 184.279,296.512 184.611,295.338 182.623 C 294.494 181.194,294.356 179.833,294.863 177.936 L 295.173 176.779 295.740 178.169 C 296.053 178.934,296.457 180.553,296.639 181.766 M216.219 178.897 C 217.545 180.474,217.782 182.005,216.761 182.397 C 215.429 182.908,215.684 183.902,217.691 186.027 C 219.785 188.243,220.562 190.485,218.931 189.606 C 216.463 188.275,214.170 183.402,214.170 179.486 C 214.170 177.095,214.599 176.972,216.219 178.897 M44.367 179.559 C 44.367 179.814,43.531 180.078,42.509 180.146 C 40.750 180.262,40.700 180.230,41.576 179.547 C 42.564 178.779,44.367 178.786,44.367 179.559 M96.632 179.341 C 96.632 180.110,95.365 180.384,93.492 180.019 C 92.021 179.732,91.897 179.622,92.683 179.303 C 94.032 178.757,96.632 178.781,96.632 179.341 M230.322 180.139 C 231.979 182.533,231.965 182.812,230.267 181.210 C 228.582 179.619,228.175 178.862,229.004 178.862 C 229.242 178.862,229.835 179.437,230.322 180.139 M265.027 182.266 C 266.355 185.795,266.490 186.841,265.568 186.487 C 264.636 186.130,264.007 184.466,263.631 181.372 C 263.226 178.033,263.500 178.208,265.027 182.266 M350.755 179.269 C 350.755 179.950,349.587 180.698,348.039 181.008 C 345.859 181.444,346.102 180.087,348.316 179.467 C 350.667 178.809,350.755 178.802,350.755 179.269 M114.695 182.683 C 114.931 184.421,114.845 185.800,114.427 187.009 C 114.016 188.194,113.912 189.759,114.113 191.721 C 114.380 194.328,114.322 194.657,113.596 194.657 C 112.936 194.657,112.885 194.528,113.335 193.986 C 114.639 192.415,112.835 189.698,111.181 190.742 C 110.751 191.013,110.157 191.953,109.862 192.830 C 109.084 195.141,108.004 194.924,108.053 192.465 C 108.105 189.861,109.375 187.161,110.982 186.239 C 112.097 185.599,112.323 185.115,112.553 182.885 C 113.022 178.349,114.093 178.248,114.695 182.683 M283.359 180.836 C 283.319 182.662,282.729 184.316,282.342 183.688 C 281.947 183.049,282.498 179.326,282.988 179.326 C 283.210 179.326,283.377 180.006,283.359 180.836 M225.319 182.810 C 225.661 183.448,225.783 184.128,225.592 184.319 C 225.189 184.722,223.926 183.159,223.926 182.257 C 223.926 181.272,224.650 181.559,225.319 182.810 M122.891 186.636 C 122.413 189.180,122.047 188.022,122.462 185.279 C 122.701 183.700,122.900 183.209,123.014 183.917 C 123.113 184.525,123.057 185.749,122.891 186.636 M275.820 185.366 C 276.135 185.749,276.400 186.356,276.408 186.715 C 276.429 187.643,275.061 186.350,273.906 184.352 L 273.016 182.811 274.131 183.740 C 274.744 184.251,275.504 184.983,275.820 185.366 M351.220 184.261 C 351.220 184.879,351.093 184.910,350.523 184.437 C 350.139 184.119,349.826 183.779,349.826 183.683 C 349.826 183.586,350.139 183.508,350.523 183.508 C 350.906 183.508,351.220 183.847,351.220 184.261 M356.800 186.909 C 357.559 188.232,358.181 189.472,358.184 189.663 C 358.192 190.339,356.890 190.002,356.603 189.255 C 356.378 188.667,355.899 188.553,354.464 188.746 L 352.616 188.994 353.544 187.814 C 354.054 187.165,354.472 186.023,354.472 185.276 C 354.472 183.494,355.089 183.927,356.800 186.909 M190.941 188.717 C 190.941 189.371,190.074 188.676,189.482 187.547 C 188.951 186.534,188.954 186.533,189.944 187.412 C 190.492 187.899,190.941 188.486,190.941 188.717 M119.635 191.345 C 119.319 194.072,118.391 196.130,117.761 195.500 C 117.587 195.326,117.915 193.598,118.490 191.661 C 119.711 187.549,120.088 187.445,119.635 191.345 M218.850 192.208 L 221.713 194.860 221.490 197.894 C 221.277 200.786,219.634 205.343,218.804 205.343 C 216.628 205.343,213.743 198.008,214.266 193.806 C 214.477 192.102,214.536 190.227,214.395 189.639 C 214.040 188.150,215.172 188.804,218.850 192.208 M273.628 190.592 C 273.623 192.038,273.501 192.380,273.171 191.870 C 272.578 190.953,272.578 188.618,273.171 188.618 C 273.426 188.618,273.632 189.506,273.628 190.592 M52.696 190.675 C 52.525 191.356,52.296 191.824,52.186 191.714 C 52.077 191.605,52.127 190.958,52.298 190.277 C 52.469 189.596,52.698 189.129,52.808 189.238 C 52.917 189.348,52.867 189.994,52.696 190.675 M92.828 190.369 C 92.908 190.909,92.333 192.809,91.550 194.592 C 89.391 199.512,89.763 201.402,92.250 198.142 C 93.843 196.052,94.309 196.091,94.309 198.311 C 94.309 200.401,92.528 202.555,90.800 202.555 C 90.197 202.555,89.310 203.105,88.739 203.833 L 87.738 205.110 88.004 203.542 C 88.150 202.680,88.276 200.067,88.284 197.735 C 88.294 194.628,88.424 193.713,88.771 194.309 C 89.895 196.237,91.749 193.414,90.868 191.118 C 90.533 190.247,91.411 188.969,92.172 189.220 C 92.453 189.312,92.748 189.829,92.828 190.369 M289.431 194.451 C 289.431 195.565,288.158 195.204,287.857 194.004 C 287.703 193.389,287.453 192.500,287.301 192.029 C 287.109 191.431,287.389 191.566,288.229 192.477 C 288.890 193.193,289.431 194.082,289.431 194.451 M279.473 193.844 C 281.492 196.236,282.441 198.782,282.452 201.835 C 282.464 205.156,282.118 204.906,280.171 200.182 C 279.370 198.238,278.198 196.164,277.568 195.572 C 276.457 194.527,276.100 193.277,276.732 192.644 C 277.374 192.003,278.238 192.382,279.473 193.844 M97.825 195.526 C 96.840 197.430,96.028 197.889,96.643 196.194 C 97.544 193.707,98.245 192.591,98.402 193.393 C 98.481 193.798,98.222 194.758,97.825 195.526 M32.985 194.641 C 32.985 194.888,32.567 195.313,32.056 195.587 C 31.032 196.134,30.807 195.627,31.684 194.750 C 32.356 194.079,32.985 194.026,32.985 194.641 M38.049 198.285 C 38.077 199.202,37.908 199.707,37.631 199.535 C 37.375 199.378,37.187 198.163,37.212 196.837 C 37.264 194.150,37.961 195.357,38.049 198.285 M46.751 199.419 C 46.238 206.556,44.980 209.382,45.272 202.741 C 45.485 197.907,46.024 195.122,46.747 195.122 C 46.919 195.122,46.920 197.056,46.751 199.419 M41.830 199.888 C 41.596 201.328,40.972 203.405,40.443 204.505 L 39.483 206.504 39.700 204.362 C 39.912 202.279,41.725 196.739,42.079 197.093 C 42.177 197.190,42.064 198.448,41.830 199.888 M19.048 199.071 C 18.409 199.436,17.677 199.735,17.422 199.735 C 17.166 199.735,17.480 199.436,18.118 199.071 C 18.757 198.706,19.489 198.407,19.744 198.407 C 20.000 198.407,19.686 198.706,19.048 199.071 M97.376 202.877 C 96.519 204.458,96.363 203.271,97.170 201.308 C 97.576 200.320,97.753 200.192,97.895 200.786 C 97.999 201.219,97.765 202.159,97.376 202.877 M108.711 201.394 C 108.711 201.747,108.502 202.165,108.246 202.323 C 107.982 202.486,107.782 202.086,107.782 201.394 C 107.782 200.701,107.982 200.301,108.246 200.465 C 108.502 200.622,108.711 201.041,108.711 201.394 M179.266 206.623 C 179.573 207.196,180.130 207.666,180.504 207.666 C 181.828 207.666,183.043 209.444,183.043 211.382 C 183.043 213.522,182.276 213.833,181.611 211.963 C 181.361 211.260,180.340 210.106,179.342 209.399 C 177.387 208.013,177.098 207.122,177.422 203.484 L 177.609 201.394 178.158 203.487 C 178.460 204.638,178.959 206.049,179.266 206.623 M25.054 207.085 C 25.095 208.380,24.353 208.463,24.023 207.201 C 23.640 205.736,24.200 203.940,24.668 205.135 C 24.863 205.633,25.036 206.510,25.054 207.085 M186.488 207.085 C 187.442 209.963,188.248 216.354,187.874 218.080 C 187.457 220.007,186.974 218.919,186.133 214.156 C 184.687 205.973,184.875 202.223,186.488 207.085 M30.659 211.163 C 30.385 212.388,29.949 213.722,29.692 214.128 C 29.159 214.969,29.212 214.625,30.212 210.788 C 30.955 207.934,31.315 208.235,30.659 211.163 M19.031 214.604 C 19.739 215.926,19.621 216.492,18.640 216.492 C 18.160 216.492,17.507 216.806,17.189 217.189 C 16.871 217.573,15.853 217.894,14.926 217.903 C 13.999 217.912,12.718 218.218,12.079 218.583 C 10.698 219.373,10.054 219.461,10.459 218.805 C 10.621 218.544,11.940 217.730,13.390 216.997 C 14.841 216.265,16.426 215.224,16.913 214.685 C 18.008 213.472,18.417 213.457,19.031 214.604 M214.933 216.297 C 216.043 217.991,215.910 219.718,214.484 222.098 L 213.249 224.158 213.245 219.628 C 213.240 214.893,213.577 214.228,214.933 216.297 M195.518 221.738 C 197.211 226.553,197.190 227.642,195.400 227.642 C 194.139 227.642,194.028 227.412,193.290 223.260 C 191.976 215.877,193.170 215.062,195.518 221.738 M21.864 225.634 C 22.697 230.442,22.991 233.598,22.565 233.173 C 22.364 232.971,21.240 226.534,20.668 222.300 C 20.095 218.060,20.979 220.523,21.864 225.634 M14.866 224.136 C 14.866 224.251,13.926 224.993,12.776 225.784 C 10.262 227.514,10.143 228.107,12.311 228.107 C 14.594 228.107,14.341 228.644,11.372 230.101 C 7.975 231.767,7.035 231.779,8.323 230.141 C 8.919 229.385,9.185 228.542,9.028 227.914 C 8.716 226.673,9.828 225.581,12.342 224.660 C 14.347 223.926,14.866 223.818,14.866 224.136 M25.876 230.554 C 26.024 232.402,26.007 233.788,25.838 233.633 C 25.323 233.161,24.203 227.136,24.491 226.386 C 24.980 225.112,25.587 226.939,25.876 230.554 M153.155 229.346 C 151.953 230.548,153.651 233.354,154.936 232.288 C 155.863 231.519,155.815 230.739,154.783 229.805 C 153.844 228.955,153.612 228.889,153.155 229.346 M33.449 231.591 C 33.449 232.485,33.659 233.217,33.914 233.217 C 34.170 233.217,34.379 232.485,34.379 231.591 C 34.379 230.697,34.170 229.965,33.914 229.965 C 33.659 229.965,33.449 230.697,33.449 231.591 M197.225 231.545 C 197.744 232.337,197.916 233.518,197.817 235.610 L 197.677 238.560 196.632 235.295 C 195.138 230.629,195.427 228.801,197.225 231.545 M21.225 248.384 C 20.706 248.903,20.861 252.183,21.422 252.529 C 22.195 253.007,22.790 251.774,22.653 249.978 C 22.536 248.444,21.888 247.721,21.225 248.384 " stroke="none" fill="#000000" fill-rule="evenodd"></path></g></svg>