<svg id="svg" version="1.1" xmlns="http://www.w3.org/2000/svg" xmlns:xlink="http://www.w3.org/1999/xlink" width="400" height="953.8950715421304" viewBox="0, 0, 400,953.8950715421304"><g id="svgg"><path id="path0" d="M173.609 1.379 C 173.609 2.932,175.816 7.036,180.562 14.306 C 182.334 17.020,183.784 19.524,183.784 19.870 C 183.784 20.847,177.599 18.971,169.350 15.491 C 165.349 13.803,163.434 13.818,163.434 15.538 C 163.434 16.777,166.932 20.350,168.145 20.350 C 168.660 20.350,169.289 20.685,169.542 21.094 C 169.847 21.587,169.661 21.707,168.989 21.449 C 165.262 20.019,160.890 20.490,160.890 22.321 C 160.890 22.682,163.037 23.968,165.660 25.180 C 171.432 27.847,171.415 27.728,166.838 33.636 C 166.731 33.773,166.221 33.534,165.703 33.104 C 165.161 32.655,164.412 32.544,163.939 32.843 C 163.486 33.130,161.685 33.512,159.936 33.693 C 155.452 34.157,154.577 37.520,158.940 37.520 C 160.363 37.520,161.526 37.793,161.526 38.127 C 161.526 38.786,160.296 39.032,151.796 40.071 C 142.296 41.233,140.466 42.875,147.629 43.811 L 151.033 44.257 147.785 45.940 C 142.105 48.885,140.351 50.733,140.773 53.330 C 140.972 54.559,140.834 55.927,140.465 56.371 C 139.207 57.886,140.531 58.651,143.610 58.190 C 148.738 57.421,163.720 56.729,164.627 57.219 C 165.773 57.838,157.465 62.454,151.378 64.581 C 141.418 68.060,138.353 66.634,138.328 58.509 C 138.321 56.094,138.012 53.815,137.642 53.445 C 136.680 52.483,131.002 53.349,131.002 54.458 C 131.002 54.936,130.715 55.326,130.366 55.326 C 130.016 55.326,129.730 54.991,129.730 54.581 C 129.730 54.171,129.350 53.384,128.885 52.832 C 127.763 51.498,125.914 45.477,125.914 43.154 C 125.914 41.803,125.516 41.152,124.436 40.742 C 122.427 39.978,120.084 33.749,120.829 31.151 C 123.200 22.886,121.386 17.137,118.735 24.512 L 117.587 27.705 114.744 24.981 C 111.713 22.077,109.706 21.568,108.388 23.370 C 107.624 24.416,107.483 24.397,106.052 23.052 C 103.529 20.682,102.754 22.657,104.378 27.317 C 105.034 29.198,104.953 29.511,103.491 30.751 C 102.606 31.501,101.712 32.867,101.505 33.786 C 101.275 34.806,99.073 37.286,95.860 40.145 C 86.901 48.119,84.500 51.510,87.816 51.510 C 89.576 51.510,89.934 52.964,88.742 55.269 C 87.482 57.704,87.992 57.774,82.181 54.372 C 76.087 50.805,73.669 50.941,75.700 54.736 C 76.216 55.699,76.147 55.962,75.380 55.962 C 74.032 55.962,74.147 56.426,76.055 58.695 C 77.681 60.627,77.686 60.665,76.392 61.144 C 74.168 61.967,73.800 66.137,75.952 66.137 C 76.412 66.137,76.963 67.008,77.176 68.073 C 77.792 71.155,81.150 72.274,86.147 71.062 C 88.258 70.551,90.097 70.228,90.235 70.346 C 90.826 70.850,88.151 76.408,85.521 80.143 C 81.664 85.621,82.065 89.642,85.961 84.555 C 89.281 80.221,91.105 78.219,91.734 78.219 C 92.671 78.219,91.897 87.971,90.675 91.574 C 90.141 93.148,89.290 95.723,88.784 97.297 C 88.279 98.871,86.845 102.591,85.598 105.564 C 83.201 111.279,82.644 115.103,84.210 115.103 C 84.975 115.103,84.963 115.484,84.127 117.610 C 83.143 120.116,83.330 122.099,84.549 122.099 C 85.431 122.099,90.173 116.044,95.010 108.742 C 100.488 100.474,104.259 97.811,99.205 105.780 C 98.156 107.434,97.297 109.327,97.297 109.986 C 97.297 110.645,96.153 112.375,94.754 113.831 C 93.355 115.288,92.210 116.891,92.210 117.395 C 92.210 117.899,91.351 120.204,90.302 122.518 C 88.110 127.354,88.029 127.822,89.391 127.822 C 90.136 127.822,90.273 128.184,89.932 129.253 C 88.874 132.572,90.665 134.347,92.556 131.852 C 93.714 130.323,93.705 130.947,92.528 133.765 C 92.003 135.021,91.574 136.808,91.574 137.736 C 91.574 138.999,91.374 139.266,90.779 138.794 C 90.342 138.447,88.957 137.978,87.702 137.752 C 86.447 137.526,81.898 135.613,77.594 133.499 C 69.423 129.487,67.921 129.028,57.631 127.401 C 51.979 126.507,50.312 126.504,40.984 127.366 C 29.526 128.426,29.253 128.504,29.253 130.721 C 29.253 131.864,28.908 132.273,27.945 132.273 C 27.005 132.273,26.279 133.085,25.361 135.160 C 23.021 140.450,24.848 142.747,28.923 139.639 C 31.621 137.581,32.338 137.568,31.952 139.587 C 31.611 141.369,32.802 141.704,35.101 140.473 C 36.220 139.875,36.156 140.111,34.666 142.063 C 32.051 145.492,33.912 145.049,41.069 140.541 C 48.472 135.877,49.822 135.957,46.659 140.871 C 45.271 143.029,44.762 149.444,45.980 149.444 C 46.532 149.444,47.161 149.157,47.377 148.808 C 47.976 147.839,48.967 148.049,48.967 149.146 C 48.967 149.681,49.396 150.284,49.921 150.485 C 50.566 150.733,50.874 151.745,50.874 153.610 C 50.874 159.829,54.352 160.757,60.413 156.156 C 63.086 154.126,63.844 155.484,62.048 159.084 C 60.806 161.574,60.795 162.162,61.993 162.162 C 62.769 162.162,62.868 162.870,62.546 166.137 L 62.154 170.111 64.443 167.939 C 67.247 165.279,68.180 166.400,66.347 170.226 L 65.183 172.655 64.816 170.429 C 64.454 168.229,64.442 168.222,63.798 169.793 C 62.769 172.304,62.311 175.435,62.918 175.811 C 63.224 175.999,63.324 176.726,63.141 177.425 C 62.697 179.123,63.535 179.027,66.172 177.076 L 68.362 175.456 68.680 177.176 C 69.045 179.147,69.637 178.675,71.554 174.881 C 73.285 171.454,79.160 166.548,77.926 169.560 C 76.742 172.447,76.713 173.199,77.799 172.782 C 78.614 172.470,78.855 172.749,78.855 174.006 C 78.855 175.077,79.273 175.745,80.073 175.954 C 80.743 176.129,81.457 176.935,81.660 177.743 C 81.863 178.552,82.194 179.644,82.396 180.169 C 82.714 180.997,81.760 181.079,75.245 180.786 C 61.645 180.175,30.975 183.136,20.350 186.086 C 10.214 188.901,8.276 190.116,13.831 190.175 L 16.852 190.207 11.288 193.044 C 5.747 195.868,3.955 197.557,7.610 196.508 C 8.648 196.211,9.865 195.772,10.313 195.534 C 10.762 195.296,10.127 195.911,8.903 196.900 C 0.248 203.897,-1.588 206.951,1.295 209.560 C 2.749 210.876,5.607 210.246,9.001 207.863 C 11.232 206.296,11.447 206.352,11.447 208.507 C 11.447 213.567,15.949 212.563,17.785 207.093 C 19.802 201.085,21.657 198.243,24.411 196.942 C 27.592 195.440,27.721 195.679,26.565 200.947 C 25.779 204.529,25.749 205.405,26.414 205.405 C 26.869 205.405,27.655 205.564,28.160 205.758 C 28.854 206.025,29.179 205.362,29.485 203.055 C 29.969 199.410,33.420 191.800,34.333 192.364 C 34.687 192.583,34.976 194.439,34.976 196.488 C 34.976 198.537,35.150 200.667,35.362 201.220 C 36.069 203.061,36.884 202.258,36.884 199.720 C 36.884 198.341,37.170 197.037,37.520 196.820 C 37.870 196.604,38.156 196.747,38.156 197.138 C 38.156 198.518,39.335 197.099,39.747 195.223 C 40.620 191.248,42.202 195.121,42.998 203.180 C 43.867 211.995,45.114 213.337,45.214 205.564 C 45.337 196.062,46.068 196.818,47.981 208.426 C 49.923 220.213,50.874 222.251,50.874 214.626 C 50.874 212.003,51.126 209.857,51.433 209.857 C 52.062 209.857,53.418 218.119,53.418 221.950 L 53.418 224.451 58.506 222.576 C 64.898 220.219,64.860 220.413,58.029 225.036 C 50.135 230.377,47.327 233.704,47.788 237.166 C 47.861 237.711,47.296 240.122,46.533 242.524 C 44.547 248.777,46.063 253.506,49.360 251.342 C 50.845 250.367,57.710 241.170,59.807 237.347 C 61.010 235.153,62.093 233.655,62.214 234.018 C 62.334 234.380,63.513 233.821,64.832 232.776 C 67.388 230.752,68.045 230.826,68.045 233.137 C 68.045 234.918,69.080 235.646,70.242 234.682 C 70.878 234.154,71.228 234.150,71.549 234.669 C 71.851 235.158,72.347 235.050,73.154 234.320 C 74.264 233.316,74.357 233.393,75.023 235.869 C 75.409 237.301,75.876 238.474,76.061 238.474 C 76.929 238.474,80.763 235.042,80.763 234.265 C 80.763 232.872,81.840 233.245,82.358 234.817 C 82.743 235.986,82.907 235.699,83.253 233.254 C 83.878 228.842,84.579 228.804,84.579 233.182 C 84.579 236.975,86.774 240.954,87.586 238.633 C 87.975 237.522,89.030 237.638,89.030 238.792 C 89.030 240.342,90.850 239.890,93.513 237.679 C 95.465 236.058,96.005 235.166,96.014 233.545 C 96.020 232.409,96.312 231.479,96.661 231.479 C 97.011 231.479,97.317 232.409,97.342 233.545 C 97.442 238.173,98.649 238.761,99.855 234.767 C 100.249 233.463,100.380 233.991,100.422 237.043 C 100.474 240.804,101.314 242.255,102.161 240.047 C 102.679 238.699,104.091 239.941,105.283 242.793 C 106.553 245.833,106.430 248.185,104.898 250.133 L 103.595 251.789 105.375 252.186 C 109.760 253.164,109.788 253.288,105.882 254.471 C 103.784 255.106,101.576 255.630,100.976 255.635 C 99.893 255.644,98.169 258.000,98.791 258.621 C 98.969 258.800,100.418 258.668,102.010 258.328 C 105.947 257.489,105.967 257.470,91.399 268.437 C 59.640 292.347,37.866 311.396,37.815 315.314 C 37.802 316.279,37.158 317.958,36.384 319.046 C 33.591 322.969,35.465 322.822,39.550 318.798 C 43.689 314.722,43.859 315.565,39.967 320.863 C 34.749 327.967,33.595 332.528,35.893 336.972 C 38.095 341.229,40.767 338.264,43.178 328.890 C 44.196 324.930,45.141 321.578,45.278 321.442 C 45.414 321.306,45.407 323.902,45.262 327.211 C 45.096 331.020,45.236 333.227,45.643 333.227 C 46.567 333.227,47.058 331.611,47.061 328.565 C 47.064 325.527,49.476 316.619,49.554 319.358 C 49.581 320.300,49.851 321.223,50.155 321.411 C 50.459 321.599,50.891 322.903,51.116 324.310 C 51.588 327.260,52.591 327.664,53.126 325.119 C 53.328 324.157,53.764 322.941,54.093 322.417 C 54.423 321.892,54.973 320.747,55.315 319.873 C 55.657 318.998,56.371 317.473,56.903 316.483 C 57.435 315.492,57.870 314.211,57.870 313.635 C 57.870 312.962,58.607 313.483,59.934 315.093 L 61.999 317.598 62.369 315.715 L 62.738 313.831 63.586 315.580 C 64.782 318.050,65.726 317.775,65.225 315.103 C 64.639 311.982,65.231 312.333,66.833 316.057 C 68.519 319.975,69.518 320.147,69.221 316.469 C 69.015 313.909,69.088 313.753,70.194 314.402 C 71.095 314.930,71.461 314.907,71.678 314.308 C 71.837 313.871,72.371 313.514,72.867 313.514 C 73.451 313.514,73.768 312.818,73.768 311.535 L 73.768 309.557 75.019 311.058 C 76.641 313.006,76.758 311.533,75.350 306.890 C 73.743 301.595,74.648 302.923,80.115 313.883 C 86.737 327.160,88.732 326.568,84.579 312.560 C 82.287 304.830,82.043 301.353,84.152 306.472 C 85.924 310.775,87.490 311.655,86.930 308.034 C 85.652 299.782,85.640 298.887,86.809 298.887 C 87.764 298.887,87.876 298.483,87.560 296.184 C 86.347 287.345,86.340 287.420,87.954 292.070 C 89.651 296.959,91.382 299.349,90.704 295.866 C 89.657 290.483,89.764 289.987,91.152 293.800 C 95.712 306.329,99.539 310.224,95.487 298.212 C 91.902 287.583,91.106 281.610,94.390 289.980 C 96.929 296.453,98.143 296.082,96.359 289.378 C 95.232 285.141,95.449 284.682,96.976 288.070 C 98.097 290.555,99.202 291.424,99.208 289.825 C 99.210 289.388,99.944 289.889,100.840 290.938 L 102.468 292.846 102.171 290.302 C 102.008 288.903,101.666 287.186,101.413 286.486 C 101.159 285.787,101.890 286.645,103.037 288.394 C 105.534 292.200,106.107 291.451,104.309 286.731 C 103.411 284.375,103.302 283.689,103.960 284.532 C 105.665 286.719,105.782 285.034,104.305 279.539 C 102.771 273.828,103.262 271.579,105.830 272.564 C 106.424 272.792,106.983 272.534,107.217 271.926 C 107.800 270.407,108.326 270.668,109.653 273.132 C 111.798 277.114,112.651 275.672,110.970 270.906 C 109.761 267.479,109.722 267.629,111.686 268.121 C 113.290 268.524,113.345 268.450,113.086 266.230 L 112.816 263.919 114.589 265.617 C 116.809 267.745,117.462 267.159,116.575 263.835 L 115.886 261.256 117.767 263.537 C 120.764 267.173,122.449 266.493,120.464 262.449 C 119.697 260.887,120.411 261.413,123.530 264.706 C 127.953 269.375,129.711 270.093,129.759 267.250 C 129.786 265.678,129.963 265.823,131.508 268.680 L 133.227 271.860 133.552 267.409 L 133.877 262.957 134.766 265.660 C 135.254 267.146,136.038 268.362,136.508 268.362 C 137.528 268.362,137.596 267.156,136.707 264.818 C 135.563 261.809,136.579 262.393,138.260 265.711 C 141.445 271.996,142.235 269.789,139.587 262.003 C 137.676 256.385,137.694 256.734,139.331 257.254 C 140.467 257.614,140.603 257.478,140.243 256.343 C 139.928 255.352,140.092 255.008,140.878 255.008 C 141.794 255.008,141.886 254.469,141.560 251.033 L 141.182 247.059 142.144 249.572 C 142.673 250.954,143.345 252.242,143.636 252.434 C 143.927 252.625,144.518 253.450,144.947 254.266 C 145.890 256.055,148.172 254.611,148.172 252.224 C 148.172 250.989,148.238 251.004,149.262 252.466 C 150.632 254.422,150.597 259.511,149.190 262.778 C 145.706 270.866,149.197 269.068,153.895 260.354 C 158.662 251.510,158.537 251.314,159.594 269.253 C 160.234 280.106,160.780 281.787,162.843 279.262 L 164.070 277.761 164.077 282.124 C 164.088 288.941,164.636 291.364,166.063 290.911 C 166.960 290.626,167.250 290.855,167.250 291.849 C 167.250 296.622,169.111 291.332,169.221 286.248 C 169.354 280.076,170.186 279.999,170.662 286.114 C 170.917 289.407,171.520 294.158,172.001 296.671 C 172.482 299.184,173.080 304.295,173.330 308.029 C 173.580 311.764,174.034 314.973,174.338 315.161 C 175.718 316.014,179.207 304.591,179.781 297.345 C 180.187 292.227,181.190 289.466,181.221 293.384 C 181.231 294.729,181.667 296.589,182.190 297.517 C 182.712 298.446,183.704 300.564,184.393 302.226 C 186.514 307.337,187.032 306.084,186.630 296.820 C 186.303 289.275,186.395 288.128,187.516 285.851 L 188.768 283.307 188.820 286.212 C 188.872 289.173,190.517 295.707,191.210 295.707 C 191.421 295.707,191.937 295.236,192.358 294.661 C 193.709 292.813,194.783 333.885,195.877 429.253 C 196.583 490.719,197.275 523.406,198.461 551.351 C 199.422 573.966,199.459 669.036,198.520 700.477 C 197.368 739.037,196.504 787.770,195.877 849.603 C 195.379 898.721,194.583 934.623,193.675 948.967 L 193.363 953.895 205.079 953.895 L 216.795 953.895 217.141 951.828 C 218.847 941.638,220.351 652.546,219.041 586.645 C 218.562 562.512,217.855 526.884,217.472 507.472 C 217.088 488.060,216.513 470.032,216.193 467.409 C 215.873 464.785,215.182 439.173,214.657 410.493 C 214.132 381.812,213.270 349.905,212.741 339.587 C 212.213 329.269,211.777 320.518,211.773 320.140 C 211.768 319.763,212.399 319.477,213.175 319.504 C 214.138 319.539,215.088 318.784,216.177 317.117 C 218.058 314.238,218.580 315.018,217.458 319.027 C 216.783 321.437,216.798 321.993,217.548 322.476 C 219.627 323.813,220.302 323.131,222.894 317.072 C 223.777 315.007,224.676 313.494,224.892 313.710 C 225.107 313.925,224.245 316.288,222.975 318.961 C 220.328 324.536,220.233 325.324,221.944 327.504 L 223.193 329.094 224.947 326.868 C 225.912 325.644,227.648 323.641,228.805 322.417 L 230.909 320.191 228.968 324.147 C 227.023 328.113,226.472 330.465,227.663 329.730 C 228.669 329.108,228.402 330.442,227.345 331.320 C 226.086 332.364,226.061 334.762,227.314 334.281 C 228.042 334.002,228.277 334.691,228.427 337.545 C 228.672 342.222,229.940 342.613,232.091 338.675 C 234.067 335.059,234.204 335.250,232.985 339.916 L 232.000 343.688 233.975 345.453 C 235.061 346.424,236.361 347.218,236.862 347.218 C 237.364 347.218,238.055 347.719,238.397 348.331 C 239.191 349.748,239.923 348.020,241.054 342.060 C 242.132 336.379,242.383 336.383,245.070 342.123 C 247.529 347.376,249.356 348.727,250.238 345.946 C 250.460 345.246,251.064 344.674,251.579 344.674 C 252.095 344.674,253.406 343.243,254.493 341.494 C 256.895 337.631,257.133 337.539,255.934 340.938 C 254.509 344.977,255.337 348.490,257.715 348.490 C 259.315 348.490,261.918 336.081,260.769 333.933 C 260.215 332.898,260.244 332.688,260.908 332.943 C 262.224 333.448,264.023 328.935,264.267 324.511 C 264.387 322.341,264.928 319.708,265.470 318.661 C 266.870 315.954,266.731 315.236,264.229 312.242 C 261.385 308.838,261.304 306.402,263.915 302.798 C 266.141 299.725,266.385 299.601,265.974 301.749 C 265.567 303.881,266.809 303.784,267.999 301.590 C 269.249 299.285,269.251 300.035,268.003 303.022 L 267.007 305.405 268.692 304.982 C 270.604 304.503,270.516 304.791,267.620 308.518 C 265.608 311.107,265.351 312.242,266.777 312.242 C 267.666 312.242,268.626 311.353,271.246 308.108 L 272.272 306.836 271.949 308.108 C 271.771 308.808,271.430 310.024,271.192 310.811 C 270.700 312.432,271.965 312.794,273.416 311.447 C 274.865 310.102,273.779 312.462,268.073 323.052 C 265.152 328.474,262.572 333.553,262.340 334.340 C 261.294 337.883,263.526 334.984,269.352 325.235 C 272.814 319.441,275.758 315.033,275.894 315.441 C 276.030 315.848,275.589 316.940,274.915 317.868 C 272.494 321.199,269.683 326.670,266.859 333.545 C 265.279 337.393,262.824 342.774,261.405 345.503 C 255.347 357.150,259.309 356.104,265.749 344.356 C 270.881 334.992,277.750 323.176,278.687 322.099 C 279.777 320.845,277.112 326.611,275.233 329.572 C 273.226 332.735,272.041 336.582,272.614 338.074 C 273.223 339.662,273.969 338.994,275.009 335.930 C 275.958 333.132,279.163 327.242,279.170 328.281 C 279.177 329.285,275.791 336.328,273.368 340.348 C 268.862 347.824,265.541 358.913,267.644 359.463 C 268.460 359.677,269.078 360.796,269.616 363.039 C 270.047 364.835,270.758 366.517,271.195 366.777 C 271.633 367.037,272.119 367.649,272.275 368.137 C 272.481 368.784,273.197 368.464,274.912 366.959 C 276.206 365.822,277.266 365.239,277.266 365.662 C 277.266 366.112,277.696 366.267,278.300 366.035 C 279.255 365.669,279.255 365.759,278.300 367.216 C 276.964 369.255,276.967 371.945,278.306 372.458 C 279.854 373.052,281.160 371.978,283.543 368.150 C 284.723 366.256,285.480 365.278,285.227 365.978 C 283.161 371.680,282.353 374.289,282.353 375.261 C 282.353 377.154,283.743 377.416,285.092 375.777 L 286.352 374.245 286.024 376.030 C 285.455 379.121,288.679 380.864,290.886 378.658 C 291.785 377.759,291.841 377.938,291.481 380.566 C 291.223 382.449,291.322 383.466,291.763 383.466 C 292.137 383.466,292.534 384.253,292.645 385.215 C 292.802 386.581,293.168 386.951,294.319 386.908 C 295.537 386.863,295.731 387.101,295.437 388.274 C 294.857 390.585,296.992 392.747,298.864 391.745 C 300.229 391.015,300.317 391.061,299.983 392.336 C 299.555 393.975,300.998 394.792,302.347 393.672 C 303.082 393.062,303.284 393.253,303.452 394.714 C 303.916 398.765,308.426 396.851,308.426 392.603 C 308.426 389.412,309.356 389.573,310.579 392.974 C 312.542 398.432,316.254 397.589,319.154 391.027 C 320.064 388.967,321.150 387.281,321.566 387.281 C 322.964 387.281,322.920 383.641,321.481 380.162 C 321.083 379.199,321.245 379.163,322.989 379.821 C 326.149 381.014,326.642 379.883,325.037 375.128 C 324.214 372.693,323.931 370.990,324.310 370.756 C 324.684 370.525,324.453 369.375,323.729 367.857 C 321.981 364.199,321.401 361.937,322.472 362.957 C 324.613 364.996,324.887 363.075,323.156 358.161 C 322.514 356.337,321.799 354.655,321.567 354.423 C 321.335 354.191,321.145 353.227,321.145 352.280 C 321.145 351.334,320.566 349.252,319.859 347.654 C 318.917 345.522,318.683 344.065,318.984 342.186 L 319.394 339.623 312.386 332.678 C 308.532 328.858,304.973 325.488,304.478 325.188 C 303.983 324.888,302.832 323.287,301.919 321.631 L 300.259 318.620 302.085 319.564 C 304.966 321.054,306.518 320.804,306.518 318.851 C 306.518 317.638,306.262 317.291,305.564 317.559 C 304.006 318.157,302.722 317.314,301.459 314.866 C 300.806 313.597,299.286 311.615,298.083 310.460 C 296.440 308.881,295.971 307.972,296.195 306.797 C 296.421 305.615,295.856 304.542,293.875 302.393 C 292.435 300.830,291.249 299.187,291.240 298.742 C 291.231 298.297,290.226 296.367,289.006 294.453 C 286.885 291.123,286.844 290.951,288.068 290.498 C 289.355 290.023,289.860 288.712,288.758 288.712 C 287.634 288.712,286.169 286.707,286.169 285.169 C 286.169 283.436,285.235 283.098,284.651 284.619 C 283.871 286.653,282.989 284.697,282.989 280.930 C 282.989 275.117,280.813 268.957,278.104 267.101 C 275.023 264.990,272.289 261.301,271.252 257.856 C 270.761 256.224,269.863 254.340,269.256 253.670 C 268.534 252.872,268.190 251.541,268.258 249.809 C 268.392 246.396,268.995 245.760,269.008 249.020 C 269.014 250.390,269.277 251.920,269.594 252.420 C 270.226 253.420,270.263 253.242,271.562 242.925 C 272.201 237.856,274.356 228.935,274.943 228.935 C 275.036 228.935,274.989 233.943,274.837 240.064 C 274.656 247.377,274.784 251.192,275.210 251.192 C 276.139 251.192,276.617 249.613,276.716 246.212 C 276.787 243.781,276.890 244.082,277.289 247.877 C 277.939 254.072,278.385 255.644,279.491 255.644 C 280.490 255.644,280.660 255.138,281.948 248.331 L 282.789 243.879 283.289 247.854 C 283.564 250.040,284.025 251.828,284.314 251.828 C 284.792 251.828,285.002 250.992,285.751 246.105 C 285.886 245.231,286.039 246.089,286.092 248.013 C 286.213 252.404,287.037 253.991,287.882 251.458 C 288.472 249.687,288.484 249.697,289.318 252.674 C 290.351 256.364,291.235 257.060,291.319 254.251 C 291.421 250.864,292.383 248.327,292.464 251.230 C 292.548 254.207,293.945 256.207,295.209 255.158 C 295.913 254.573,296.295 254.578,296.894 255.177 C 297.660 255.943,298.141 255.572,299.170 253.418 C 299.338 253.068,299.949 253.426,300.530 254.213 C 301.739 255.851,303.339 256.111,303.339 254.670 C 303.339 254.134,303.768 253.531,304.293 253.330 C 304.960 253.074,305.260 251.983,305.291 249.693 C 305.362 244.539,306.418 243.050,306.483 248.013 C 306.546 252.772,306.931 253.638,309.090 253.879 C 310.517 254.039,310.670 253.808,310.862 251.192 L 311.072 248.331 312.134 251.456 C 314.295 257.818,317.288 257.229,317.416 250.417 L 317.503 245.787 317.946 249.603 C 318.190 251.701,318.860 254.322,319.435 255.426 C 320.010 256.530,321.088 259.678,321.831 262.421 C 324.114 270.850,325.308 269.539,323.370 260.731 C 321.566 252.527,322.902 253.038,324.953 261.336 C 327.245 270.613,329.161 270.851,327.806 261.692 C 326.841 255.163,327.032 253.736,328.133 259.250 C 329.761 267.405,330.597 269.255,331.541 266.795 C 332.124 265.276,330.952 256.951,329.448 251.926 C 328.121 247.492,328.095 245.788,329.376 247.101 C 330.390 248.140,332.591 257.954,332.600 261.473 C 332.613 266.633,333.101 267.896,334.904 267.444 C 336.088 267.146,336.407 267.322,336.407 268.272 C 336.407 268.936,336.836 269.835,337.361 270.270 C 338.656 271.345,339.800 268.482,340.855 261.526 C 341.746 255.645,342.417 254.911,343.049 259.127 C 343.908 264.855,344.901 263.166,344.476 256.699 C 344.019 249.740,344.257 248.980,345.308 254.043 C 346.026 257.503,347.181 259.320,347.258 257.112 C 347.333 254.966,348.306 258.257,349.159 263.544 C 350.191 269.943,354.729 274.913,354.883 269.813 C 354.926 268.385,355.970 260.157,356.641 255.962 C 357.084 253.185,357.214 253.894,357.667 261.564 C 358.108 269.031,358.331 270.290,359.153 269.975 C 359.685 269.771,360.653 270.086,361.304 270.675 C 362.864 272.086,362.929 271.980,364.202 265.921 C 365.527 259.620,366.456 259.516,366.547 265.659 C 366.652 272.814,369.455 273.079,369.485 265.936 C 369.503 261.573,370.501 261.764,371.309 266.285 C 372.259 271.601,372.231 271.557,376.223 274.003 C 380.236 276.461,380.271 276.461,380.351 273.927 L 380.416 271.860 381.079 273.927 C 381.847 276.321,385.308 277.658,388.965 276.972 C 391.904 276.421,392.495 275.001,391.444 271.016 C 390.603 267.829,391.707 267.020,393.325 269.638 C 393.984 270.705,396.102 270.340,396.798 269.040 C 397.619 267.506,397.663 262.842,396.861 262.346 C 394.804 261.075,394.369 258.188,396.233 258.188 C 398.313 258.188,398.590 257.274,397.139 255.202 C 396.407 254.157,396.370 253.773,396.980 253.547 C 398.822 252.864,395.571 251.255,389.507 249.849 L 383.148 248.373 391.341 247.896 C 399.727 247.408,400.982 247.122,399.346 246.070 C 398.522 245.541,398.522 245.397,399.346 244.868 C 400.625 244.045,400.078 243.653,395.765 242.299 C 393.722 241.658,392.552 241.107,393.164 241.075 C 397.421 240.854,392.836 239.135,387.917 239.109 C 385.422 239.096,384.693 238.914,385.374 238.474 C 385.898 238.135,387.563 237.853,389.072 237.848 C 399.742 237.810,393.947 233.424,381.876 232.401 C 377.162 232.002,376.649 231.815,374.881 229.853 C 373.682 228.522,369.387 225.929,363.320 222.870 C 352.516 217.425,349.844 215.418,353.748 215.680 C 355.787 215.818,357.468 215.294,356.704 214.759 C 351.644 211.218,341.776 208.027,331.638 206.654 C 325.602 205.836,324.950 205.219,324.988 200.355 L 325.016 196.820 326.292 199.237 C 327.665 201.838,328.865 202.639,330.175 201.829 C 330.629 201.549,331.573 201.309,332.273 201.296 C 333.168 201.279,333.603 200.773,333.740 199.592 C 333.891 198.285,334.207 197.983,335.161 198.233 C 337.555 198.859,338.286 198.068,337.545 195.654 C 336.241 191.406,337.571 189.214,339.056 193.164 C 339.747 195.000,340.524 196.502,340.783 196.502 C 341.201 196.502,344.046 194.115,344.033 193.775 C 344.031 193.701,343.460 191.781,342.766 189.507 C 342.072 187.234,341.502 185.249,341.499 185.096 C 341.497 184.943,342.353 185.640,343.402 186.645 C 345.816 188.958,346.116 187.221,344.014 183.101 C 343.301 181.704,342.441 179.784,342.103 178.834 L 341.488 177.107 342.807 178.696 C 350.908 188.454,352.642 189.295,350.016 182.194 C 349.564 180.972,349.595 180.965,350.817 182.035 C 355.872 186.462,353.536 178.559,346.641 167.910 C 346.037 166.977,345.948 166.542,346.421 166.833 C 346.857 167.102,350.077 171.282,353.577 176.122 C 359.653 184.524,361.844 186.802,361.844 184.718 C 361.844 183.508,363.047 183.525,364.405 184.753 C 365.473 185.720,367.568 185.443,367.568 184.335 C 367.568 184.014,368.412 184.188,369.444 184.721 C 371.774 185.926,377.098 185.985,378.686 184.824 C 379.820 183.995,379.756 183.730,377.228 178.783 C 375.773 175.937,374.747 173.609,374.947 173.609 C 375.147 173.609,377.151 174.639,379.402 175.897 C 384.061 178.502,385.133 178.399,385.717 175.287 C 386.384 171.733,385.620 170.577,381.033 168.192 L 376.789 165.986 380.681 166.373 C 387.907 167.091,386.446 164.361,378.630 162.541 C 370.982 160.760,370.018 159.013,376.671 158.992 C 379.808 158.982,382.194 158.144,382.194 157.052 C 382.194 156.715,381.771 156.439,381.255 156.439 C 380.738 156.439,379.866 155.752,379.316 154.913 C 378.265 153.309,376.351 152.362,372.655 151.619 C 370.546 151.195,370.504 151.138,371.860 150.529 C 375.311 148.977,373.472 148.172,366.455 148.162 C 361.806 148.155,359.924 147.955,360.572 147.536 C 361.097 147.197,362.132 146.915,362.871 146.910 C 364.808 146.896,367.449 144.598,368.546 141.974 C 370.070 138.326,369.802 138.355,358.729 143.029 C 353.438 145.263,352.575 145.154,355.054 142.566 C 357.062 140.471,357.226 139.670,355.538 140.206 C 354.534 140.524,354.382 140.350,354.677 139.222 C 355.126 137.504,353.452 137.917,349.173 140.580 L 346.330 142.349 344.552 140.853 C 341.778 138.519,340.338 138.303,338.579 139.955 C 336.880 141.551,336.746 141.405,337.672 138.969 C 339.018 135.429,335.511 136.318,333.203 140.102 L 332.113 141.890 331.698 140.239 C 331.011 137.499,324.893 136.270,322.006 138.292 C 321.274 138.805,320.515 139.063,320.319 138.867 C 320.122 138.670,318.527 139.316,316.773 140.302 C 313.255 142.280,313.176 142.268,312.530 139.693 L 312.078 137.894 315.112 138.349 C 318.078 138.794,318.137 138.770,317.768 137.288 C 316.557 132.429,316.590 130.572,317.936 127.708 C 319.254 124.904,319.267 124.653,318.315 120.549 C 317.161 115.573,317.160 115.560,317.892 116.012 C 318.201 116.203,318.648 117.651,318.885 119.229 C 319.459 123.063,320.274 122.860,320.665 118.787 C 320.840 116.965,321.306 115.368,321.700 115.236 C 322.813 114.865,322.563 113.939,320.684 111.475 C 319.548 109.985,319.015 108.592,319.137 107.428 C 319.240 106.451,318.842 104.917,318.253 104.018 C 316.764 101.745,317.000 101.860,323.395 106.518 C 329.922 111.274,334.032 112.159,330.267 107.999 C 329.264 106.891,329.335 106.836,331.789 106.836 C 333.490 106.836,334.487 106.513,334.729 105.882 C 334.930 105.358,335.471 104.928,335.930 104.928 C 336.389 104.928,337.088 104.070,337.484 103.021 C 338.141 101.281,338.463 101.113,341.135 101.113 C 343.559 101.113,344.178 100.865,344.719 99.678 C 345.079 98.889,346.440 97.629,347.745 96.878 C 352.837 93.948,352.764 90.998,347.544 88.689 C 343.145 86.744,343.163 86.334,347.690 85.186 C 352.342 84.007,353.270 82.035,349.172 82.035 C 346.131 82.035,346.071 81.872,348.191 79.353 C 349.844 77.388,349.510 75.676,347.473 75.676 C 346.999 75.676,346.119 74.889,345.517 73.927 C 344.915 72.965,344.357 72.079,344.275 71.958 C 344.194 71.837,342.840 72.624,341.266 73.707 C 337.618 76.216,337.225 76.185,339.236 73.549 C 342.536 69.223,340.886 66.510,336.954 69.793 C 334.918 71.493,334.890 71.498,335.951 69.970 C 337.276 68.061,337.378 66.508,336.147 66.980 C 335.579 67.198,335.114 66.774,334.874 65.819 C 334.666 64.991,333.636 63.701,332.586 62.953 L 330.675 61.593 323.632 68.157 C 313.849 77.276,312.459 77.983,318.283 70.878 C 321.853 66.523,322.546 64.865,320.798 64.865 C 319.752 64.865,318.320 66.171,314.872 70.271 C 312.387 73.225,312.814 72.591,320.653 61.685 C 326.379 53.719,326.694 52.905,324.925 50.656 C 323.386 48.699,321.956 48.501,320.758 50.079 C 320.242 50.759,319.905 50.883,319.893 50.397 C 319.848 48.623,318.433 49.921,313.312 56.439 C 310.358 60.199,305.871 65.564,303.342 68.362 C 298.698 73.501,296.383 77.347,296.357 79.968 C 296.331 82.638,299.186 80.452,300.717 76.630 C 301.838 73.833,305.207 69.943,305.229 71.421 C 305.239 72.076,305.540 72.389,305.929 72.149 C 306.305 71.917,305.981 72.973,305.209 74.496 C 303.881 77.118,298.713 82.671,297.601 82.671 C 297.316 82.671,296.669 82.830,296.162 83.024 C 295.493 83.281,295.041 82.584,294.511 80.481 C 294.110 78.887,293.499 77.583,293.155 77.583 C 292.810 77.583,292.528 76.408,292.528 74.972 C 292.528 72.851,292.339 72.433,291.522 72.746 C 290.969 72.958,290.396 73.132,290.250 73.132 C 290.104 73.132,289.958 74.491,289.927 76.153 C 289.871 79.108,289.857 79.129,289.273 77.107 C 288.645 74.933,288.126 74.608,287.032 75.703 C 286.572 76.163,286.123 76.069,285.566 75.398 C 284.987 74.701,284.445 74.601,283.624 75.040 C 282.698 75.536,282.410 75.355,282.089 74.073 C 281.499 71.722,279.541 72.100,277.484 74.961 L 275.712 77.426 274.826 75.120 C 273.586 71.893,273.193 68.278,274.026 67.763 C 276.928 65.970,274.062 61.727,267.727 58.437 L 264.865 56.950 269.900 56.297 C 274.001 55.765,277.710 54.054,274.763 54.054 C 274.338 54.054,274.214 53.446,274.449 52.512 C 274.899 50.719,274.327 50.593,262.321 49.839 L 255.326 49.400 262.321 48.312 C 271.448 46.892,274.701 45.963,275.169 44.641 C 275.379 44.047,275.990 43.051,276.526 42.427 C 278.555 40.067,277.970 22.001,275.734 17.965 C 273.564 14.049,273.813 14.094,267.820 16.536 C 265.248 17.584,263.027 18.442,262.886 18.442 C 262.744 18.442,263.519 16.863,264.608 14.934 C 265.955 12.547,266.467 10.947,266.211 9.925 C 265.320 6.377,258.995 4.916,256.280 7.631 C 255.129 8.782,255.007 8.798,255.003 7.790 C 254.996 6.131,252.189 4.999,251.008 6.180 C 250.200 6.988,249.740 6.937,247.338 5.777 C 244.326 4.322,243.850 4.552,243.144 7.803 C 242.680 9.939,241.653 10.747,241.653 8.977 C 241.653 6.597,237.602 4.886,235.347 6.313 C 234.445 6.884,234.284 10.236,234.963 14.308 C 235.169 15.544,234.891 15.161,234.175 13.223 C 232.341 8.261,228.310 7.647,227.779 12.249 C 227.599 13.809,227.475 13.893,226.615 13.034 C 223.377 9.796,223.999 15.851,227.886 25.411 C 229.513 29.412,230.606 32.924,230.314 33.216 C 229.225 34.305,227.556 32.790,224.990 28.384 C 221.254 21.966,219.975 20.606,218.970 21.980 C 218.074 23.205,219.232 26.734,221.752 30.454 C 222.901 32.151,223.952 35.418,222.985 34.287 C 222.860 34.141,220.715 31.636,218.217 28.719 C 214.881 24.823,213.417 22.529,212.704 20.074 C 211.100 14.558,210.448 14.025,207.344 15.686 C 204.551 17.181,204.341 17.044,205.723 14.626 C 206.856 12.645,206.932 10.814,205.882 10.800 C 205.445 10.794,204.390 10.053,203.536 9.155 C 202.334 7.887,201.579 7.602,200.174 7.883 C 198.908 8.136,198.253 7.961,198.000 7.302 C 197.801 6.784,197.131 6.359,196.512 6.359 C 195.893 6.359,195.030 5.930,194.595 5.405 C 193.387 3.951,192.365 4.244,190.253 6.649 L 188.323 8.847 186.727 6.123 C 183.897 1.294,173.609 -2.426,173.609 1.379 M213.990 29.253 C 214.207 29.603,213.801 29.889,213.089 29.889 C 208.359 29.889,209.804 34.451,217.319 43.243 C 220.374 46.817,219.651 46.335,213.223 40.517 C 211.402 38.869,209.337 37.520,208.635 37.520 C 207.932 37.520,207.062 36.967,206.700 36.291 C 206.339 35.615,205.438 34.870,204.699 34.636 C 202.899 34.064,203.884 33.116,208.903 30.589 C 213.193 28.429,213.441 28.364,213.990 29.253 M177.925 32.345 L 180.533 35.438 178.184 34.599 C 176.892 34.138,175.208 33.748,174.441 33.732 C 172.484 33.693,172.055 32.640,173.251 30.815 C 174.639 28.696,174.928 28.791,177.925 32.345 M232.940 39.448 C 233.425 41.303,232.922 40.969,231.715 38.633 C 230.811 36.885,230.798 36.692,231.630 37.382 C 232.170 37.830,232.760 38.760,232.940 39.448 M205.194 41.103 L 206.572 44.665 203.293 44.230 C 200.156 43.814,195.866 41.790,195.866 40.727 C 195.866 40.146,201.435 37.643,202.862 37.582 C 203.448 37.557,204.346 38.914,205.194 41.103 M104.263 43.934 C 103.873 44.663,103.427 45.133,103.272 44.979 C 102.827 44.533,103.729 42.607,104.383 42.607 C 104.708 42.607,104.654 43.204,104.263 43.934 M97.823 60.572 C 97.509 61.184,97.028 61.685,96.753 61.685 C 95.761 61.685,91.279 59.191,92.210 59.157 C 93.951 59.093,95.196 57.950,94.215 57.317 C 93.540 56.881,93.808 56.103,95.487 53.633 L 97.615 50.502 98.005 54.981 C 98.219 57.444,98.137 59.960,97.823 60.572 M166.561 51.913 C 166.706 52.041,165.371 52.146,163.592 52.146 C 161.814 52.146,159.834 52.313,159.194 52.516 C 158.084 52.868,158.082 52.842,159.154 51.960 C 160.156 51.136,165.639 51.101,166.561 51.913 M256.598 61.166 C 257.997 61.575,258.712 62.001,258.188 62.112 C 257.663 62.222,255.803 61.911,254.054 61.420 C 251.966 60.834,251.420 60.509,252.464 60.474 C 253.339 60.444,255.199 60.756,256.598 61.166 M214.626 64.204 C 216.238 64.593,216.355 64.743,215.380 65.167 C 213.943 65.791,207.958 65.128,207.076 64.246 C 206.319 63.489,211.545 63.460,214.626 64.204 M159.570 70.341 C 158.722 71.254,156.455 73.079,154.531 74.396 C 150.176 77.376,146.695 80.901,146.221 82.808 C 145.633 85.173,143.547 80.546,143.349 76.439 C 143.260 74.585,142.843 72.653,142.422 72.146 C 141.811 71.410,141.851 71.224,142.620 71.224 C 143.150 71.224,143.749 71.653,143.950 72.178 C 144.477 73.550,145.943 73.361,149.330 71.483 L 152.305 69.833 149.285 72.503 C 142.371 78.613,146.358 79.122,154.213 73.132 C 160.207 68.561,162.174 67.537,159.570 70.341 M280.685 80.220 C 281.192 85.674,281.218 85.634,278.592 83.443 L 276.501 81.697 277.964 78.686 C 279.901 74.699,280.187 74.860,280.685 80.220 M217.450 80.399 C 218.038 81.108,217.985 81.731,217.210 83.230 C 216.663 84.287,216.216 86.189,216.216 87.458 L 216.216 89.764 214.626 87.874 C 213.752 86.835,213.037 85.843,213.037 85.669 C 213.037 85.495,213.752 85.173,214.626 84.953 C 216.932 84.375,216.576 82.991,213.831 81.865 C 212.012 81.118,211.777 80.872,212.840 80.825 C 213.606 80.791,214.410 80.477,214.626 80.127 C 215.192 79.212,216.575 79.345,217.450 80.399 M261.349 80.102 C 261.863 80.428,262.098 80.880,261.871 81.107 C 261.250 81.728,257.485 80.750,257.902 80.075 C 258.364 79.327,260.145 79.341,261.349 80.102 M159.319 84.549 C 159.113 84.883,158.023 85.769,156.897 86.518 L 154.849 87.881 156.926 85.912 C 158.967 83.976,160.056 83.356,159.319 84.549 M275.412 87.323 C 274.588 88.147,274.456 86.613,275.193 84.790 C 275.608 83.764,275.690 83.805,275.883 85.129 C 276.003 85.956,275.791 86.944,275.412 87.323 M258.007 92.656 C 258.723 94.523,257.462 94.165,253.606 91.408 C 247.083 86.743,246.485 85.440,252.408 88.795 C 255.302 90.435,257.821 92.172,258.007 92.656 M215.614 96.376 C 214.382 98.966,213.869 98.510,213.320 94.337 C 212.941 91.455,213.032 91.031,214.076 90.818 C 215.957 90.434,216.871 93.734,215.614 96.376 M310.334 109.698 L 311.924 111.606 310.175 110.064 C 309.213 109.216,308.426 108.238,308.426 107.891 C 308.426 107.544,308.498 107.379,308.585 107.525 C 308.672 107.671,309.459 108.649,310.334 109.698 M115.988 132.651 C 115.418 135.416,114.372 139.110,113.664 140.859 C 112.956 142.607,112.198 145.037,111.981 146.257 C 111.555 148.651,109.998 149.477,108.404 148.153 C 107.624 147.506,107.804 146.820,109.631 143.490 C 110.809 141.343,111.961 138.778,112.191 137.789 C 112.704 135.579,116.470 127.068,116.791 127.390 C 116.919 127.518,116.558 129.886,115.988 132.651 M302.722 131.535 C 302.252 132.340,302.110 131.987,302.126 130.048 C 302.145 127.823,302.222 127.690,302.743 128.991 C 303.119 129.928,303.111 130.868,302.722 131.535 M294.083 135.193 C 295.676 137.149,296.979 139.052,296.979 139.422 C 296.979 139.793,296.134 138.979,295.102 137.615 C 294.069 136.251,292.614 134.348,291.869 133.386 C 289.341 130.124,291.169 131.616,294.083 135.193 M123.705 136.693 C 123.171 137.725,122.734 139.233,122.734 140.045 C 122.734 141.794,120.420 150.371,119.467 152.151 C 118.173 154.569,117.375 152.323,118.515 149.472 C 119.809 146.240,119.825 145.388,118.586 145.864 C 117.462 146.295,117.607 145.968,121.577 139.110 C 124.057 134.826,125.543 133.139,123.705 136.693 M105.638 144.137 C 104.929 145.482,104.336 146.377,104.321 146.127 C 104.275 145.395,106.403 141.168,106.678 141.442 C 106.816 141.580,106.348 142.793,105.638 144.137 M303.698 144.037 C 305.320 146.162,305.349 146.331,304.352 147.852 C 302.277 151.019,299.937 147.863,301.055 143.406 C 301.569 141.359,301.675 141.384,303.698 144.037 M269.691 147.007 C 270.657 148.811,270.031 148.386,268.361 146.105 C 267.424 144.826,267.271 144.382,267.958 144.940 C 268.568 145.436,269.348 146.366,269.691 147.007 M289.458 151.587 C 289.926 152.439,289.911 152.653,289.407 152.342 C 289.020 152.102,288.262 150.995,287.723 149.880 C 286.635 147.630,288.052 149.024,289.458 151.587 M138.671 156.667 C 137.975 158.290,137.269 159.618,137.101 159.618 C 136.933 159.618,137.393 158.181,138.123 156.424 C 138.853 154.667,139.560 153.339,139.694 153.472 C 139.827 153.606,139.367 155.043,138.671 156.667 M272.717 157.302 C 272.572 157.975,271.994 157.401,271.039 155.635 L 269.581 152.941 271.260 154.608 C 272.183 155.525,272.839 156.737,272.717 157.302 M261.131 156.245 C 262.572 157.686,263.178 158.697,262.697 158.857 C 261.851 159.139,259.083 156.818,258.107 155.008 C 257.080 153.104,258.620 153.734,261.131 156.245 M361.799 179.014 C 361.799 179.364,361.390 178.935,360.890 178.060 C 360.390 177.186,359.981 176.184,359.981 175.835 C 359.981 175.485,360.390 175.914,360.890 176.789 C 361.390 177.663,361.799 178.665,361.799 179.014 M93.182 199.523 C 92.757 204.767,91.574 208.460,91.574 204.542 C 91.574 202.231,92.948 193.959,93.332 193.959 C 93.497 193.959,93.429 196.463,93.182 199.523 M306.836 198.596 C 310.670 204.122,310.823 204.440,309.246 203.596 C 308.566 203.232,306.530 202.738,304.720 202.498 L 301.431 202.062 301.431 198.381 C 301.431 195.054,301.830 194.146,303.339 194.036 C 303.514 194.023,305.087 196.075,306.836 198.596 M298.251 198.454 C 298.251 202.337,294.987 201.952,293.842 197.933 C 293.327 196.128,293.403 195.866,294.442 195.866 C 295.097 195.866,295.836 195.537,296.085 195.134 C 296.749 194.059,298.251 196.361,298.251 198.454 M78.266 205.734 C 77.801 210.990,77.754 211.136,77.672 207.552 C 77.590 203.960,78.128 199.379,78.579 199.830 C 78.685 199.935,78.544 202.592,78.266 205.734 M63.959 204.350 C 63.178 209.561,64.542 214.115,65.943 210.974 C 66.628 209.439,68.680 212.146,68.680 214.584 C 68.680 216.302,62.504 219.017,61.760 217.627 C 60.438 215.158,60.203 207.658,61.375 205.353 C 63.672 200.835,64.537 200.499,63.959 204.350 M83.307 206.677 C 83.307 209.645,83.095 210.493,82.353 210.493 C 81.213 210.493,81.161 209.457,82.110 205.687 C 83.059 201.919,83.307 202.123,83.307 206.677 M55.665 208.072 C 56.928 214.139,57.515 221.304,56.749 221.304 C 55.884 221.304,55.448 219.382,54.701 212.289 C 53.652 202.331,54.080 200.459,55.665 208.072 M72.310 213.824 C 72.158 214.615,72.028 214.118,72.020 212.719 C 72.013 211.320,72.138 210.672,72.297 211.280 C 72.456 211.888,72.462 213.033,72.310 213.824 M125.752 223.370 C 125.533 224.627,125.441 224.665,125.004 223.687 C 124.729 223.074,124.731 221.786,125.006 220.825 C 125.609 218.723,126.208 220.765,125.752 223.370 M150.940 223.052 C 152.988 227.127,153.627 229.237,152.626 228.619 C 151.769 228.089,148.824 222.069,148.814 220.827 C 148.802 219.370,149.408 220.004,150.940 223.052 M66.773 227.981 C 66.773 228.506,66.517 228.935,66.205 228.935 C 65.892 228.935,65.472 228.506,65.271 227.981 C 65.048 227.400,65.270 227.027,65.839 227.027 C 66.352 227.027,66.773 227.456,66.773 227.981 M150.035 233.583 C 150.059 234.216,149.793 234.556,149.444 234.340 C 149.094 234.124,148.828 233.034,148.852 231.918 C 148.901 229.708,149.941 231.172,150.035 233.583 M117.572 236.749 C 119.221 241.254,119.441 244.992,117.970 243.521 C 116.889 242.440,113.818 232.712,114.300 231.894 C 114.849 230.965,116.175 232.931,117.572 236.749 M132.909 236.959 C 132.909 237.484,132.623 237.736,132.273 237.520 C 131.924 237.304,131.638 236.698,131.638 236.173 C 131.638 235.648,131.924 235.396,132.273 235.612 C 132.623 235.828,132.909 236.434,132.909 236.959 M255.168 244.783 C 254.547 248.078,253.685 250.892,253.252 251.036 C 252.060 251.433,252.279 249.332,254.213 241.793 C 256.300 233.658,256.907 235.559,255.168 244.783 M277.715 239.897 C 277.563 240.688,277.433 240.191,277.426 238.792 C 277.419 237.393,277.543 236.745,277.702 237.353 C 277.862 237.961,277.867 239.106,277.715 239.897 M155.150 245.369 C 155.159 246.188,154.618 247.557,153.946 248.410 L 152.726 249.962 151.761 246.603 C 150.252 241.348,149.912 239.746,150.308 239.746 C 150.510 239.746,151.102 240.533,151.624 241.494 L 152.572 243.243 152.649 241.017 L 152.726 238.792 153.930 241.335 C 154.592 242.734,155.141 244.549,155.150 245.369 M257.621 248.013 C 257.175 251.399,257.062 251.672,256.996 249.523 C 256.912 246.779,257.626 242.171,257.968 243.253 C 258.077 243.597,257.921 245.739,257.621 248.013 M264.868 249.252 C 264.372 254.855,263.275 256.849,263.275 252.147 C 263.275 249.083,264.486 243.288,265.016 243.818 C 265.184 243.986,265.117 246.431,264.868 249.252 M261.806 249.126 C 261.646 249.738,261.515 249.237,261.515 248.013 C 261.515 246.789,261.646 246.288,261.806 246.900 C 261.966 247.512,261.966 248.514,261.806 249.126 M363.613 253.418 L 363.602 255.326 363.116 253.418 C 362.849 252.369,362.625 250.795,362.619 249.921 L 362.607 248.331 363.116 249.921 C 363.396 250.795,363.620 252.369,363.613 253.418 M163.731 259.120 C 163.483 261.437,163.137 263.190,162.962 263.015 C 162.787 262.840,162.847 260.801,163.095 258.484 C 163.343 256.168,163.689 254.415,163.864 254.590 C 164.039 254.765,163.979 256.803,163.731 259.120 M232.591 255.637 C 235.492 257.405,235.170 257.839,232.114 256.280 C 229.715 255.055,228.970 254.369,230.048 254.374 C 230.310 254.376,231.455 254.944,232.591 255.637 M269.925 257.508 C 270.610 258.615,268.881 258.979,267.847 257.945 C 266.899 256.997,266.926 256.916,268.189 256.916 C 268.943 256.916,269.724 257.182,269.925 257.508 M262.488 261.168 C 261.880 261.327,260.735 261.333,259.944 261.181 C 259.153 261.029,259.650 260.899,261.049 260.892 C 262.448 260.885,263.096 261.009,262.488 261.168 M361.658 264.698 C 361.506 265.490,361.376 264.992,361.369 263.593 C 361.362 262.194,361.486 261.547,361.645 262.155 C 361.804 262.763,361.810 263.907,361.658 264.698 M277.091 277.424 C 276.897 279.261,276.134 282.165,275.395 283.878 L 274.050 286.993 272.488 285.525 C 271.629 284.718,270.742 283.079,270.518 281.882 C 270.293 280.686,269.717 279.557,269.236 279.372 C 268.756 279.188,268.396 278.424,268.436 277.674 C 268.494 276.599,268.571 276.547,268.801 277.424 C 269.157 278.787,270.906 278.912,270.906 277.574 C 270.906 276.443,274.506 274.092,276.242 274.088 C 277.312 274.086,277.405 274.450,277.091 277.424 M280.154 284.662 C 279.860 286.227,279.416 286.804,278.509 286.804 C 276.935 286.804,276.950 286.336,278.652 282.565 C 280.186 279.165,280.977 280.271,280.154 284.662 M258.808 283.148 C 260.229 285.066,260.737 286.366,260.559 287.627 C 260.420 288.605,260.546 289.552,260.837 289.732 C 261.650 290.234,261.468 291.081,260.465 291.466 C 259.446 291.857,253.736 283.456,253.736 281.566 C 253.736 279.336,256.659 280.247,258.808 283.148 M212.036 293.576 C 210.754 302.496,209.957 305.114,209.897 300.596 C 209.859 297.662,212.344 285.264,212.867 285.787 C 213.006 285.926,212.632 289.431,212.036 293.576 M284.261 290.542 C 284.261 292.626,282.972 293.108,279.332 292.386 C 277.496 292.021,275.994 291.443,275.994 291.100 C 275.994 290.493,278.111 290.697,280.835 291.566 C 281.861 291.893,282.259 291.683,282.524 290.671 C 282.955 289.023,284.261 288.926,284.261 290.542 M262.050 295.333 C 261.541 295.946,261.516 296.361,261.972 296.642 C 262.339 296.869,262.639 297.511,262.639 298.069 C 262.639 298.952,262.473 298.934,261.362 297.929 C 260.167 296.847,260.153 296.698,261.143 295.604 C 262.377 294.241,263.148 294.010,262.050 295.333 M214.619 303.498 C 213.806 307.434,211.638 314.153,211.067 314.506 C 209.973 315.182,210.502 312.345,212.486 306.901 C 214.556 301.217,215.352 299.948,214.619 303.498 M52.816 315.771 C 52.508 316.803,52.231 317.170,52.201 316.586 C 52.140 315.402,52.819 313.338,53.158 313.677 C 53.278 313.797,53.124 314.740,52.816 315.771 M230.178 316.410 C 229.727 316.954,228.762 317.684,228.033 318.033 C 227.210 318.428,227.431 318.055,228.617 317.048 C 230.787 315.205,231.378 314.963,230.178 316.410 M263.270 316.676 C 263.977 317.124,264.035 317.460,263.497 317.997 C 262.693 318.802,260.095 317.789,260.095 316.671 C 260.095 315.889,262.030 315.893,263.270 316.676 M261.315 321.781 C 261.694 321.781,262.003 322.216,262.003 322.749 C 262.003 324.352,256.825 320.812,255.480 318.290 C 255.030 317.446,255.789 317.822,257.713 319.396 C 259.316 320.707,260.937 321.781,261.315 321.781 M256.280 330.578 C 256.280 331.406,255.524 331.956,254.909 331.576 C 254.251 331.170,254.818 330.048,255.681 330.048 C 256.011 330.048,256.280 330.286,256.280 330.578 M253.757 335.453 C 254.149 339.433,252.834 338.922,252.122 334.817 C 251.726 332.537,251.781 332.372,252.656 333.227 C 253.193 333.752,253.689 334.754,253.757 335.453 " stroke="none" fill="#000000" fill-rule="evenodd"></path></g></svg>