<svg id="svg" version="1.1" xmlns="http://www.w3.org/2000/svg" xmlns:xlink="http://www.w3.org/1999/xlink" width="400" height="1129.9435028248588" viewBox="0, 0, 400,1129.9435028248588"><g id="svgg"><path id="path0" d="M172.864 4.143 C 173.132 6.629,173.504 9.680,173.689 10.923 C 173.964 12.762,173.646 12.446,171.980 9.228 C 170.022 5.445,168.203 3.819,169.030 6.591 C 169.603 8.511,169.811 18.764,169.288 19.287 C 169.043 19.532,168.399 19.021,167.856 18.152 C 166.621 16.175,165.725 16.126,165.725 18.035 C 165.725 20.685,164.519 20.319,160.795 16.539 C 156.305 11.980,155.664 11.904,156.283 16.008 C 157.238 22.334,157.543 23.204,158.937 23.568 C 159.840 23.804,160.667 25.119,161.232 27.219 C 161.718 29.023,162.806 31.853,163.650 33.508 L 165.185 36.515 162.630 34.435 C 161.225 33.291,159.228 31.988,158.192 31.539 C 155.627 30.429,155.137 30.123,151.368 27.275 C 141.865 20.095,142.843 29.189,152.941 41.896 C 161.154 52.232,161.093 52.429,149.743 52.150 C 144.110 52.011,141.085 52.237,140.346 52.850 C 139.313 53.707,135.708 50.598,135.620 48.776 C 135.547 47.247,134.087 48.460,134.087 50.050 C 134.087 53.055,133.255 52.884,123.477 47.873 C 113.346 42.682,110.295 41.736,110.455 43.837 C 110.544 44.992,110.294 45.016,107.819 44.090 C 102.401 42.062,96.823 42.250,100.080 44.350 C 101.445 45.230,100.547 45.658,96.045 46.275 C 89.241 47.206,87.701 48.295,91.714 49.340 C 94.350 50.027,92.748 50.762,86.855 51.571 C 81.987 52.239,78.987 55.744,83.284 55.744 C 84.828 55.744,84.660 56.712,82.109 62.524 C 78.293 71.217,78.624 71.563,90.755 71.563 C 98.921 71.563,99.986 71.717,101.143 73.070 C 101.897 73.950,103.366 74.576,104.675 74.576 C 106.149 74.576,107.707 75.350,109.228 76.836 C 110.499 78.079,111.683 79.096,111.859 79.096 C 113.414 79.096,134.693 83.127,135.489 83.572 C 136.112 83.921,134.607 84.357,131.729 84.661 C 116.891 86.228,115.301 87.966,127.684 89.081 C 129.295 89.226,127.633 89.920,121.895 91.499 C 117.469 92.717,113.996 93.954,114.177 94.247 C 115.168 95.851,125.667 96.594,134.833 95.709 C 157.477 93.521,157.300 93.391,142.105 101.051 C 137.193 103.527,133.349 105.728,133.563 105.942 C 134.095 106.475,148.193 104.749,150.509 103.869 C 153.199 102.846,153.451 103.641,150.863 104.980 C 145.307 107.852,145.892 110.268,151.563 107.872 C 157.284 105.455,156.668 106.068,147.963 111.453 C 143.645 114.124,140.113 116.580,140.113 116.912 C 140.113 118.258,143.494 117.348,149.358 114.423 C 152.766 112.723,155.132 111.774,154.614 112.314 C 152.461 114.559,154.238 115.029,158.569 113.361 C 160.816 112.495,158.617 114.544,154.955 116.728 L 152.095 118.434 152.589 116.467 C 152.981 114.904,152.810 114.501,151.754 114.501 C 149.624 114.501,145.214 118.239,145.737 119.601 C 146.017 120.333,145.289 121.710,143.820 123.225 C 139.587 127.593,141.553 127.726,149.473 123.608 C 153.555 121.485,158.458 118.621,160.369 117.244 C 164.846 114.017,165.729 113.524,165.707 114.268 C 165.697 114.603,164.426 115.790,162.882 116.905 C 151.080 125.428,147.646 128.207,147.646 129.238 C 147.646 130.937,149.946 130.106,156.685 125.972 C 167.083 119.595,170.245 118.036,170.245 119.290 C 170.245 119.915,169.482 120.647,168.550 120.918 C 163.543 122.374,155.698 129.838,160.494 128.584 C 161.794 128.244,161.630 128.683,159.472 131.321 C 156.274 135.230,155.308 137.853,157.066 137.853 C 158.129 137.853,158.083 138.131,156.740 139.838 C 152.337 145.436,156.111 144.862,162.834 138.912 C 167.406 134.865,169.112 134.192,167.654 137.011 C 167.007 138.262,166.478 139.960,166.478 140.784 C 166.478 141.609,166.171 142.474,165.795 142.706 C 165.420 142.938,165.290 142.450,165.507 141.621 C 166.330 138.473,163.160 140.623,158.655 146.270 C 155.901 149.721,155.880 149.796,157.584 150.090 C 158.915 150.320,158.477 150.621,155.709 151.377 C 151.830 152.435,143.126 157.659,143.126 158.929 C 143.126 160.046,145.538 159.873,148.765 158.525 C 153.546 156.527,152.409 157.756,146.312 161.176 C 143.110 162.973,139.779 165.080,138.910 165.860 C 137.126 167.461,133.314 168.164,117.137 169.871 C 110.923 170.527,103.635 171.339,100.942 171.675 C 97.868 172.058,95.410 171.999,94.338 171.515 C 93.149 170.979,91.473 171.012,88.819 171.625 C 86.723 172.109,83.847 172.505,82.428 172.505 C 80.541 172.505,79.849 172.836,79.849 173.739 C 79.849 174.788,79.186 174.914,75.432 174.573 C 70.713 174.145,69.843 174.401,69.093 176.434 C 68.831 177.146,65.930 179.078,62.647 180.729 C 59.364 182.380,52.823 186.172,48.113 189.157 C 43.402 192.142,37.514 195.759,35.028 197.196 C 18.789 206.579,9.165 215.002,7.852 220.977 C 7.581 222.211,5.686 224.894,3.642 226.939 C 1.597 228.983,0.026 230.928,0.150 231.259 C 0.350 231.791,6.152 230.239,10.078 228.603 C 10.857 228.278,10.009 229.419,8.195 231.137 C 3.476 235.606,7.767 237.696,12.618 233.291 C 14.728 231.375,14.945 232.810,13.183 237.028 C 10.761 242.825,12.771 243.617,16.196 238.216 C 17.860 235.592,19.002 234.589,20.525 234.413 C 21.977 234.246,22.731 233.636,23.049 232.369 C 23.298 231.375,24.172 230.350,24.990 230.090 C 26.848 229.500,27.688 230.241,26.503 231.425 C 25.511 232.418,25.395 240.230,26.294 245.574 C 26.974 249.619,27.222 248.950,29.013 238.235 C 30.582 228.844,31.656 226.364,31.543 232.392 C 31.432 238.307,31.451 238.382,32.756 237.298 C 33.980 236.282,34.679 237.468,35.745 242.373 C 36.339 245.103,37.377 245.478,38.876 243.503 C 39.618 242.525,39.883 242.458,39.901 243.243 C 39.919 244.066,40.248 244.009,41.380 242.984 C 42.787 241.711,42.890 241.775,44.481 244.939 C 47.908 251.753,50.713 252.745,53.199 248.024 C 54.255 246.020,55.310 245.090,56.835 244.822 C 58.017 244.614,59.203 243.819,59.470 243.055 C 59.894 241.844,60.087 241.941,60.965 243.808 L 61.974 245.951 62.910 243.735 L 63.847 241.519 64.375 243.923 C 65.065 247.065,66.000 246.979,66.612 243.718 C 67.117 241.026,68.550 239.302,68.550 241.387 C 68.550 242.033,69.185 242.561,69.964 242.561 C 70.742 242.561,71.801 243.070,72.316 243.691 C 73.667 245.319,74.350 245.096,75.207 242.750 C 75.623 241.610,75.991 241.219,76.023 241.879 C 76.111 243.651,78.678 245.688,80.124 245.133 C 81.438 244.629,81.727 243.727,82.518 237.674 L 83.009 233.916 83.979 236.739 C 86.452 243.932,89.294 243.834,88.619 236.580 C 88.320 233.363,88.424 231.173,88.888 230.886 C 89.309 230.625,89.642 231.196,89.642 232.180 C 89.642 233.148,90.231 234.778,90.950 235.802 L 92.259 237.665 92.650 235.405 C 92.930 233.788,93.522 233.077,94.732 232.904 C 95.661 232.772,96.435 232.263,96.451 231.774 C 96.468 231.285,96.960 231.987,97.545 233.333 C 98.840 236.313,99.804 236.423,101.203 233.754 L 102.265 231.726 102.814 234.225 C 103.482 237.266,102.373 238.209,98.882 237.571 C 96.749 237.180,96.352 237.374,95.684 239.130 C 95.152 240.529,93.670 241.688,90.776 242.968 C 88.495 243.977,86.629 245.130,86.629 245.531 C 86.629 245.932,85.439 246.483,83.984 246.756 C 80.890 247.336,80.118 248.226,81.383 249.751 C 82.800 251.457,88.950 251.082,95.258 248.904 C 102.675 246.342,105.130 246.866,99.100 249.724 C 95.898 251.241,93.047 251.947,89.101 252.200 C 82.927 252.596,81.950 253.283,84.264 255.597 C 85.840 257.173,89.379 256.971,96.267 254.910 C 96.974 254.698,96.242 255.251,94.640 256.139 C 93.039 257.026,91.564 258.379,91.364 259.146 C 91.163 259.912,89.847 261.087,88.438 261.755 C 85.536 263.132,85.422 263.410,87.029 265.186 C 88.084 266.351,87.809 266.826,83.828 270.711 C 77.941 276.457,79.611 277.498,91.874 275.726 C 98.298 274.797,98.299 274.793,90.627 280.324 C 79.316 288.477,76.398 291.550,80.541 290.942 C 82.707 290.624,82.734 290.664,82.340 293.600 C 81.615 299.005,85.066 301.885,87.751 298.117 C 88.867 296.550,89.016 296.522,89.715 297.740 C 90.748 299.542,92.510 299.394,94.204 297.363 C 95.413 295.914,95.622 295.860,95.643 296.987 C 95.681 298.974,96.849 298.581,98.995 295.857 C 100.776 293.598,100.926 293.540,100.933 295.104 C 100.953 299.155,103.544 296.152,110.424 284.103 C 113.178 279.280,115.619 275.921,116.821 275.299 C 117.890 274.746,120.728 271.984,123.129 269.162 C 128.356 263.015,128.814 262.771,128.814 266.121 C 128.814 267.950,128.038 269.690,126.184 272.022 C 122.260 276.958,123.510 277.965,129.785 274.921 L 132.957 273.383 130.697 275.309 C 129.454 276.368,125.148 278.931,121.127 281.005 C 112.920 285.239,112.090 285.997,114.888 286.699 C 119.548 287.869,125.706 286.258,132.392 282.121 C 137.438 278.999,136.143 280.432,129.575 285.238 C 123.742 289.507,121.704 292.210,125.141 291.119 C 127.950 290.228,126.144 291.796,116.159 298.922 C 100.607 310.020,99.751 314.736,114.054 310.524 C 120.281 308.690,121.152 308.871,116.797 311.093 C 115.080 311.969,113.493 313.158,113.272 313.734 C 113.051 314.311,112.451 314.622,111.939 314.425 C 110.738 313.964,106.968 316.919,106.968 318.322 C 106.968 319.031,107.802 319.400,109.416 319.406 C 111.774 319.415,111.699 319.507,107.391 321.904 C 101.507 325.178,101.078 326.411,106.054 325.751 C 111.804 324.988,113.094 326.166,109.276 328.693 C 105.343 331.295,105.422 331.656,109.793 331.030 L 113.371 330.517 110.774 333.245 C 106.252 337.994,109.856 338.557,120.904 334.828 C 121.733 334.548,120.631 335.907,118.456 337.849 C 114.657 341.239,113.454 343.499,115.443 343.507 C 115.960 343.509,115.395 344.302,114.186 345.269 C 109.210 349.251,114.617 351.288,122.411 348.368 C 123.418 347.991,122.902 348.900,120.849 351.115 C 115.464 356.926,113.748 359.391,113.748 361.311 C 113.748 362.341,111.714 366.816,109.228 371.255 C 102.790 382.752,103.366 384.971,111.506 380.027 C 117.957 376.108,117.657 377.001,110.679 382.486 C 107.395 385.067,104.708 387.522,104.708 387.940 C 104.708 388.923,106.667 388.915,108.519 387.923 C 109.771 387.253,109.947 387.384,109.788 388.865 C 109.633 390.313,109.933 390.561,111.690 390.440 L 113.775 390.296 111.089 393.575 C 108.632 396.573,108.500 398.745,110.862 397.284 C 111.459 396.916,111.580 397.145,111.239 397.993 C 110.962 398.683,110.529 399.755,110.277 400.377 C 109.385 402.583,111.921 401.482,116.398 397.721 C 118.876 395.639,121.961 393.471,123.253 392.904 C 125.035 392.122,125.722 391.236,126.098 389.233 C 127.544 381.525,134.087 386.655,134.087 395.495 C 134.087 401.766,139.479 394.700,139.980 387.773 C 140.288 383.514,140.347 383.406,141.712 384.642 C 143.051 385.852,143.126 385.840,143.126 384.410 C 143.126 380.240,145.784 376.391,146.275 379.849 C 146.634 382.374,149.262 382.034,150.649 379.284 C 151.578 377.442,151.748 374.243,151.566 361.983 L 151.343 346.941 153.072 348.516 C 154.024 349.382,155.175 349.953,155.632 349.785 C 156.088 349.616,157.549 351.911,158.878 354.883 C 160.744 359.058,161.498 360.084,162.190 359.392 C 163.527 358.055,163.233 343.323,161.768 338.231 C 160.282 333.070,160.457 332.882,163.070 336.831 C 165.126 339.937,165.174 339.960,166.382 338.434 C 167.057 337.583,168.654 336.361,169.932 335.719 C 171.211 335.078,174.177 332.989,176.524 331.077 C 178.871 329.165,180.791 327.917,180.791 328.303 C 180.791 328.690,180.282 329.428,179.661 329.944 C 177.718 331.556,178.660 343.361,180.698 342.920 C 181.348 342.780,181.228 343.429,180.319 344.969 C 177.669 349.454,180.804 348.566,187.154 343.031 C 191.416 339.317,192.799 339.286,189.214 342.985 C 185.087 347.243,186.395 349.673,190.946 346.202 C 194.333 343.618,195.683 344.695,193.562 348.289 C 192.667 349.807,192.112 351.512,192.329 352.078 C 192.744 353.158,192.197 354.418,188.809 360.199 C 186.167 364.708,187.325 365.494,191.308 361.895 C 194.266 359.223,194.321 359.206,193.226 361.305 C 191.940 363.772,191.715 367.608,192.856 367.608 C 193.278 367.608,192.746 369.337,191.676 371.450 C 187.999 378.705,190.847 377.029,199.123 367.066 C 205.121 359.845,205.785 359.534,208.193 362.824 L 209.607 364.755 207.605 363.443 C 204.973 361.719,204.506 362.362,205.551 366.268 C 206.025 368.041,206.339 370.924,206.249 372.674 C 206.117 375.217,206.484 376.276,208.073 377.947 C 211.703 381.763,211.489 391.637,207.091 423.117 C 205.864 431.896,204.029 447.319,203.013 457.392 C 201.048 476.866,199.357 487.784,195.861 503.578 C 193.153 515.815,191.859 523.323,189.501 540.490 C 184.605 576.133,181.669 593.765,172.842 640.516 C 164.453 684.949,160.255 712.562,155.925 751.789 C 152.203 785.505,148.840 811.932,143.508 849.341 C 141.265 865.085,138.553 886.441,137.483 896.798 C 134.237 928.206,130.958 951.213,127.338 967.985 C 126.131 973.578,124.442 981.684,123.585 985.997 C 117.680 1015.726,98.283 1052.262,77.560 1072.693 C 73.988 1076.215,66.991 1083.842,62.012 1089.642 C 43.638 1111.044,35.944 1116.484,10.793 1125.853 L -0.377 1130.013 71.940 1129.585 C 111.714 1129.349,145.738 1128.909,147.549 1128.608 L 150.841 1128.060 147.685 1124.294 C 142.166 1117.707,134.839 1104.697,134.846 1101.497 C 134.867 1092.866,138.885 1066.577,143.813 1042.840 C 148.094 1022.216,149.113 1016.364,157.472 964.385 C 166.014 911.273,166.275 909.264,168.734 877.966 C 170.759 852.188,171.932 840.282,175.078 813.559 C 177.578 792.315,178.723 778.147,179.674 756.685 C 180.930 728.361,182.639 715.076,194.357 642.561 C 199.560 610.358,201.316 598.050,205.248 566.215 C 207.098 551.237,210.309 528.421,212.384 515.511 C 216.147 492.099,217.818 479.434,220.715 452.354 C 221.557 444.482,222.902 433.635,223.705 428.249 C 228.479 396.200,227.975 398.693,229.897 397.664 C 232.576 396.231,232.740 397.977,230.420 403.232 C 227.334 410.223,227.334 418.911,230.420 417.004 C 233.328 415.206,242.739 368.119,244.808 345.009 C 246.114 330.421,247.031 321.535,247.535 318.565 C 247.921 316.288,247.758 315.787,246.526 315.465 C 245.312 315.147,244.974 314.179,244.584 309.894 C 244.324 307.042,243.875 303.361,243.587 301.714 L 243.062 298.720 245.093 300.050 C 248.876 302.529,249.306 300.025,245.823 295.799 C 242.457 291.716,244.288 289.619,248.862 292.318 C 250.375 293.211,252.165 293.730,252.840 293.471 C 254.587 292.800,252.319 290.411,247.720 288.079 C 243.484 285.931,241.055 283.032,241.055 280.124 C 241.055 277.357,241.597 277.407,244.171 280.414 C 246.224 282.813,246.267 282.825,246.297 281.036 L 246.328 279.210 248.071 280.848 C 250.671 283.290,251.884 282.880,254.499 278.673 C 258.440 272.333,259.990 275.997,256.327 282.994 C 253.998 287.442,254.294 288.497,257.316 286.517 C 258.831 285.524,259.479 285.406,259.704 286.080 C 259.874 286.589,260.498 287.006,261.091 287.006 C 261.893 287.006,261.587 288.157,259.898 291.504 C 257.169 296.909,257.060 299.068,259.379 301.764 C 261.692 304.453,262.840 303.765,267.145 297.111 C 271.091 291.013,270.851 293.137,266.628 301.696 C 264.955 305.086,263.653 308.828,263.653 310.248 L 263.653 312.773 268.867 308.151 L 274.080 303.529 271.900 308.639 C 269.150 315.085,269.151 322.411,271.902 322.411 C 272.968 322.411,274.953 318.316,274.953 316.115 C 274.953 314.675,275.267 314.347,276.369 314.636 C 277.280 314.874,278.497 314.244,279.777 312.870 L 281.767 310.734 279.801 315.589 C 277.962 320.130,275.470 330.712,276.093 331.335 C 276.247 331.489,277.407 330.878,278.671 329.978 C 281.612 327.884,282.486 328.480,282.486 332.580 C 282.486 337.132,283.360 337.273,286.656 333.251 C 293.727 324.622,294.861 325.126,294.095 336.559 C 293.583 344.214,293.609 344.414,295.084 343.945 C 296.276 343.567,296.802 343.951,297.544 345.743 C 299.034 349.341,300.925 348.674,304.430 343.315 C 307.760 338.224,307.690 339.540,304.243 346.825 C 301.646 352.315,301.430 354.354,303.517 353.692 C 304.551 353.363,305.102 353.671,305.451 354.771 C 306.383 357.705,308.563 355.851,311.076 349.988 C 312.814 345.932,314.003 345.698,312.703 349.667 C 310.304 356.995,310.098 363.842,312.278 363.842 C 313.710 363.842,314.261 362.682,315.663 356.717 C 316.903 351.439,316.904 351.438,317.437 354.278 C 318.328 359.030,318.051 365.543,316.808 369.021 C 315.351 373.100,315.334 372.881,317.123 372.881 C 318.686 372.881,319.198 374.139,319.577 378.908 L 319.787 381.544 322.192 377.024 C 323.515 374.539,324.614 372.928,324.634 373.446 C 324.680 374.646,327.100 374.671,328.286 373.484 C 330.379 371.391,328.785 365.756,326.611 367.561 C 324.916 368.968,324.995 367.071,326.711 365.175 C 330.439 361.055,322.323 330.212,309.979 301.588 C 305.007 290.059,305.048 291.835,309.607 285.567 C 314.599 278.704,316.008 278.139,314.068 283.779 C 312.336 288.814,312.360 288.512,313.693 288.512 C 314.284 288.512,315.654 287.411,316.737 286.064 L 318.706 283.616 318.191 289.176 C 317.543 296.175,318.721 296.238,322.113 289.385 L 324.453 284.659 324.935 288.657 C 325.775 295.634,326.826 298.414,328.526 298.156 C 329.687 297.980,330.576 298.957,332.434 302.448 C 334.960 307.194,336.919 308.250,337.362 305.106 C 337.507 304.082,338.130 302.557,338.746 301.716 C 339.814 300.261,339.847 300.295,339.440 302.448 C 336.994 315.377,336.815 321.969,338.930 321.298 C 340.094 320.928,340.431 321.247,340.625 322.900 L 340.866 324.964 344.074 321.616 C 347.651 317.881,348.677 318.214,348.839 323.164 C 348.887 324.614,349.168 326.648,349.464 327.684 L 350.002 329.567 351.242 327.307 L 352.482 325.047 352.512 327.451 C 352.529 328.773,352.881 330.064,353.296 330.320 C 353.710 330.576,354.049 330.424,354.049 329.981 C 354.049 329.539,355.066 328.112,356.309 326.812 C 357.552 325.511,358.569 323.796,358.569 323.001 C 358.569 321.899,358.926 321.669,360.075 322.034 C 363.656 323.171,360.924 313.759,351.676 293.107 C 348.753 286.578,332.156 261.968,322.232 249.447 C 314.860 240.145,308.214 233.163,296.917 222.851 C 283.544 210.644,282.199 208.642,284.971 205.066 C 285.562 204.302,286.006 204.368,287.131 205.387 C 288.894 206.982,289.601 206.347,291.515 201.444 L 292.962 197.740 293.069 200.753 C 293.242 205.610,294.808 211.299,295.972 211.299 C 296.580 211.299,297.471 209.723,298.101 207.533 C 300.104 200.576,301.219 202.030,302.875 213.758 C 303.359 217.181,304.006 220.138,304.314 220.328 C 304.968 220.733,310.553 211.557,311.604 208.349 C 312.301 206.225,312.394 206.342,314.432 211.931 C 317.808 221.187,318.581 220.762,320.542 208.570 C 321.267 204.064,321.921 200.377,321.995 200.377 C 322.069 200.377,322.108 205.952,322.081 212.766 C 322.047 221.639,322.298 225.421,322.963 226.087 C 324.376 227.503,324.529 226.971,325.305 217.939 C 326.233 207.148,327.598 204.261,327.733 212.806 C 327.785 216.121,328.245 220.527,328.754 222.599 L 329.680 226.365 330.248 220.339 C 330.560 217.024,331.244 212.787,331.769 210.923 L 332.722 207.533 333.291 211.299 C 333.604 213.371,334.263 216.730,334.756 218.763 L 335.652 222.460 338.824 218.476 L 341.996 214.492 341.996 218.608 C 341.996 223.736,342.800 224.689,343.963 220.941 L 344.851 218.079 344.930 221.620 C 344.987 224.148,344.663 225.354,343.800 225.837 C 342.376 226.634,341.317 233.522,342.618 233.522 C 344.295 233.522,351.526 225.448,353.918 220.904 C 357.062 214.934,357.077 214.944,356.537 222.599 C 355.876 231.968,357.506 231.649,364.236 221.092 C 367.009 216.742,369.400 213.183,369.550 213.183 C 370.031 213.183,368.892 215.750,367.208 218.456 C 363.924 223.736,364.245 226.126,367.870 223.380 C 370.925 221.065,372.410 223.716,369.868 226.948 C 367.897 229.454,367.928 231.262,369.942 231.262 C 371.430 231.262,371.492 231.527,370.998 235.782 C 370.645 238.822,370.738 240.301,371.281 240.301 C 372.859 240.301,374.443 235.678,374.901 229.736 C 375.570 221.068,377.345 219.057,377.377 226.930 C 377.412 235.497,378.687 234.345,383.002 221.846 L 384.822 216.573 384.878 222.750 C 384.933 228.821,386.087 236.355,387.134 237.487 C 387.427 237.804,388.323 234.753,389.125 230.707 C 390.511 223.721,390.593 223.541,390.769 227.119 C 391.102 233.928,391.762 237.347,392.636 236.807 C 393.224 236.444,393.328 238.125,392.997 242.630 L 392.533 248.964 394.394 246.704 C 400.419 239.389,402.263 223.622,397.317 221.723 C 396.619 221.456,396.234 220.212,396.234 218.229 C 396.234 209.167,362.670 189.867,333.710 182.277 C 325.314 180.076,324.875 179.643,326.562 175.224 C 328.027 171.387,329.513 169.692,330.298 170.962 C 331.327 172.627,331.827 171.622,331.571 168.404 C 331.403 166.284,331.713 164.474,332.418 163.467 C 334.554 160.419,330.010 149.050,323.909 142.175 L 321.096 139.005 315.162 139.136 C 304.886 139.362,282.219 143.485,272.087 146.972 C 266.361 148.942,266.031 148.856,264.301 144.947 C 262.371 140.582,262.848 139.927,265.074 143.888 C 267.364 147.961,267.702 147.691,267.202 142.185 C 266.897 138.822,267.061 137.154,267.777 136.347 C 268.329 135.725,269.439 133.053,270.244 130.408 L 271.708 125.600 272.145 129.830 C 272.794 136.115,277.152 142.685,279.269 140.568 C 279.867 139.970,278.118 119.532,276.854 112.340 C 274.985 101.710,273.745 98.143,270.508 94.077 C 268.810 91.944,267.420 89.930,267.420 89.602 C 267.420 87.385,239.510 86.690,227.495 88.607 L 224.859 89.028 228.437 85.887 C 232.647 82.191,233.032 80.125,229.726 78.973 L 227.437 78.175 230.103 75.586 C 233.424 72.361,233.555 70.810,230.508 70.810 C 229.085 70.810,228.249 70.424,228.249 69.766 C 228.249 69.193,227.412 68.175,226.390 67.505 C 225.332 66.812,224.705 65.834,224.934 65.235 C 225.591 63.524,223.809 63.051,221.762 64.392 L 219.862 65.637 221.149 63.673 C 221.856 62.593,223.066 61.372,223.835 60.960 C 226.371 59.603,224.781 52.243,221.582 50.531 C 219.503 49.419,211.913 49.565,208.500 50.783 C 205.879 51.719,205.747 51.696,206.429 50.423 C 207.252 48.884,207.380 45.905,206.699 44.129 C 205.897 42.040,203.886 42.840,199.262 47.087 C 193.705 52.190,193.222 52.203,192.385 47.269 C 191.670 43.056,190.819 42.606,186.317 44.060 C 183.457 44.983,182.941 42.439,182.212 23.820 C 181.484 5.261,181.120 1.507,180.048 1.507 C 178.853 1.507,178.179 3.295,177.786 7.510 L 177.401 11.629 175.597 6.380 C 173.157 -0.722,172.260 -1.456,172.864 4.143 M190.584 53.885 C 190.584 55.955,188.375 60.384,187.586 59.897 C 186.444 59.190,186.655 56.310,187.990 54.405 C 189.348 52.467,190.584 52.219,190.584 53.885 M156.685 57.250 C 157.604 57.844,157.507 57.983,156.165 57.992 C 155.257 57.999,154.305 57.665,154.049 57.250 C 153.456 56.291,155.201 56.291,156.685 57.250 M164.972 64.499 C 164.972 65.147,164.133 65.537,162.736 65.537 C 160.923 65.537,160.591 65.287,160.986 64.218 C 161.971 61.547,164.972 61.758,164.972 64.499 M157.439 64.030 C 157.439 64.867,157.941 65.537,158.569 65.537 C 159.190 65.537,159.699 66.174,159.699 66.952 C 159.699 67.736,161.549 69.948,163.850 71.914 C 169.789 76.988,170.372 78.333,166.165 77.265 C 161.126 75.986,161.080 75.923,156.144 63.465 C 155.939 62.947,156.146 62.524,156.605 62.524 C 157.064 62.524,157.439 63.202,157.439 64.030 M165.902 82.987 C 165.529 83.360,164.630 83.437,163.905 83.159 C 162.931 82.786,162.831 82.501,163.522 82.074 C 164.755 81.312,166.794 82.094,165.902 82.987 M250.191 110.938 C 248.937 112.193,248.227 110.947,249.394 109.540 C 250.100 108.689,250.509 108.588,250.716 109.211 C 250.882 109.707,250.645 110.484,250.191 110.938 M248.868 121.281 L 249.322 123.917 248.235 121.657 C 247.032 119.154,246.622 115.498,247.771 117.514 C 248.125 118.136,248.619 119.831,248.868 121.281 M246.273 129.292 C 248.345 131.926,249.539 136.111,249.147 139.360 C 248.869 141.666,248.814 141.558,248.708 138.489 C 248.612 135.685,248.060 134.351,245.951 131.827 C 244.501 130.091,243.315 128.364,243.315 127.989 C 243.315 126.695,244.716 127.313,246.273 129.292 M244.480 138.960 C 245.054 142.782,244.601 144.633,243.092 144.633 C 242.397 144.633,242.169 143.948,242.382 142.500 C 242.554 141.327,242.156 138.553,241.498 136.337 C 239.964 131.172,239.994 131.046,242.160 133.508 C 243.189 134.676,244.191 137.031,244.480 138.960 M291.204 146.532 C 290.405 147.136,289.568 147.446,289.342 147.221 C 288.870 146.748,290.783 145.403,291.902 145.422 C 292.316 145.428,292.002 145.928,291.204 146.532 M310.773 152.518 C 311.373 153.955,311.831 156.243,311.790 157.603 L 311.715 160.075 310.776 157.062 C 308.553 149.935,308.551 147.201,310.773 152.518 M300.188 160.191 C 300.821 161.705,301.169 163.113,300.961 163.320 C 300.628 163.653,298.305 158.861,298.305 157.840 C 298.305 156.676,299.171 157.758,300.188 160.191 M279.450 168.475 C 280.320 170.800,280.900 172.835,280.739 172.996 C 280.440 173.295,276.460 164.828,276.460 163.891 C 276.460 162.324,278.076 164.802,279.450 168.475 M325.111 166.931 C 325.385 168.393,325.266 170.331,324.845 171.236 C 323.735 173.625,322.318 169.892,322.922 166.170 C 323.445 162.949,324.428 163.291,325.111 166.931 M152.919 164.645 C 152.919 166.911,151.127 167.981,147.431 167.922 L 143.503 167.860 147.269 166.085 C 151.021 164.318,152.919 163.834,152.919 164.645 M287.565 168.747 C 290.163 171.975,290.455 173.258,288.593 173.258 C 286.206 173.258,281.733 167.521,281.733 164.461 C 281.733 163.679,286.026 166.834,287.565 168.747 M318.573 170.998 C 318.547 173.691,318.354 175.471,318.145 174.953 C 317.936 174.435,317.285 174.011,316.698 174.011 C 315.957 174.011,315.649 173.149,315.690 171.186 C 315.723 169.633,315.921 168.785,316.130 169.303 C 317.059 171.607,318.057 170.073,317.600 167.043 C 317.260 164.795,317.340 164.178,317.869 164.972 C 318.282 165.593,318.599 168.305,318.573 170.998 M239.548 169.492 C 238.855 169.920,238.145 169.896,237.677 169.429 C 237.175 168.927,237.297 168.445,238.041 167.985 C 238.735 167.557,239.445 167.580,239.912 168.048 C 240.414 168.550,240.293 169.031,239.548 169.492 M275.316 170.472 C 276.611 173.573,275.700 174.368,274.321 171.339 C 273.467 169.465,273.098 166.632,273.799 167.333 C 273.993 167.527,274.675 168.939,275.316 170.472 M302.825 173.341 C 302.825 174.658,302.091 173.972,300.924 171.563 L 299.737 169.115 301.281 170.893 C 302.130 171.871,302.825 172.973,302.825 173.341 M251.533 176.967 C 252.985 177.886,252.866 184.580,251.378 185.668 C 250.768 186.114,250.141 187.148,249.983 187.966 C 249.747 189.194,249.206 188.811,246.882 185.767 C 243.581 181.444,243.307 180.258,246.020 182.035 L 247.972 183.315 247.731 180.509 C 247.431 177.034,249.134 175.448,251.533 176.967 M259.056 181.041 C 259.513 183.664,259.887 187.167,259.887 188.825 C 259.887 193.151,260.562 193.263,263.045 189.347 C 265.468 185.526,266.732 185.310,264.799 189.047 C 262.104 194.259,258.380 196.100,258.380 192.222 C 258.380 190.918,257.641 189.399,256.471 188.300 C 254.453 186.404,254.439 185.617,256.304 179.096 C 257.446 175.103,258.103 175.567,259.056 181.041 M265.658 179.488 C 264.151 183.094,262.900 183.716,262.900 180.859 C 262.900 179.206,263.193 178.691,263.962 178.986 C 264.607 179.233,265.226 178.758,265.537 177.775 C 265.820 176.886,266.209 176.316,266.403 176.510 C 266.597 176.703,266.261 178.043,265.658 179.488 M269.627 196.798 C 269.687 200.002,268.454 200.508,266.323 198.153 C 265.047 196.743,265.063 196.569,266.719 193.889 C 268.692 190.696,269.528 191.532,269.627 196.798 M306.252 199.368 C 305.538 202.212,304.842 200.926,305.503 197.982 C 305.811 196.606,306.216 195.919,306.401 196.454 C 306.587 196.990,306.519 198.301,306.252 199.368 M70.550 198.461 C 70.305 199.100,69.742 199.623,69.300 199.623 C 68.743 199.623,68.755 199.142,69.338 198.052 C 70.273 196.305,71.251 196.635,70.550 198.461 M279.288 199.623 C 280.031 197.181,280.095 197.388,280.158 202.448 C 280.234 208.589,279.665 209.098,276.312 205.885 C 273.881 203.556,273.698 202.023,275.448 198.644 L 276.697 196.234 277.591 199.247 L 278.485 202.260 279.288 199.623 M67.857 205.461 C 67.231 206.537,67.089 206.294,67.089 204.143 C 67.089 201.992,67.231 201.749,67.857 202.825 C 68.379 203.720,68.379 204.566,67.857 205.461 M375.382 212.241 C 376.100 215.940,374.689 215.176,373.724 211.343 C 372.489 206.437,372.690 202.674,373.968 206.780 C 374.484 208.437,375.120 210.895,375.382 212.241 M63.277 209.667 C 63.277 210.220,62.076 211.999,60.609 213.622 L 57.941 216.573 59.193 213.936 C 61.106 209.908,63.277 207.639,63.277 209.667 M349.507 216.651 C 348.205 221.302,347.636 220.190,348.814 215.295 C 349.342 213.097,349.926 211.749,350.111 212.298 C 350.295 212.848,350.024 214.807,349.507 216.651 M233.835 217.772 C 233.051 218.639,231.727 219.673,230.894 220.069 C 230.060 220.465,230.552 219.756,231.987 218.493 C 235.000 215.839,235.903 215.487,233.835 217.772 M202.840 226.840 C 202.386 227.294,201.584 227.399,201.057 227.074 C 200.350 226.637,200.481 226.344,201.557 225.953 C 203.340 225.306,203.952 225.728,202.840 226.840 M161.152 232.434 C 159.824 235.781,159.366 233.235,160.558 229.133 C 161.520 225.824,161.595 225.750,161.807 227.914 C 161.931 229.181,161.636 231.214,161.152 232.434 M212.882 231.026 C 213.242 232.946,213.045 233.982,212.149 234.878 C 211.016 236.011,210.921 235.934,210.899 233.871 C 210.886 232.643,210.383 230.988,209.782 230.194 C 208.965 229.114,208.901 228.493,209.529 227.736 C 210.739 226.278,212.274 227.783,212.882 231.026 M228.303 235.275 C 227.338 236.241,227.217 234.160,228.071 231.262 C 228.593 229.489,228.639 229.528,228.868 231.923 C 229.002 233.322,228.748 234.830,228.303 235.275 M282.853 241.827 C 281.033 245.345,280.605 243.964,282.218 239.782 C 283.276 237.039,283.673 236.558,283.850 237.802 C 283.979 238.706,283.530 240.517,282.853 241.827 M47.771 241.323 C 47.287 242.586,45.951 243.052,45.951 241.959 C 45.951 241.226,47.632 239.471,47.990 239.829 C 48.131 239.970,48.033 240.643,47.771 241.323 M291.099 243.988 C 291.741 245.026,289.459 250.828,287.292 253.669 C 285.120 256.517,282.486 255.584,282.486 251.967 C 282.486 248.651,289.796 241.879,291.099 243.988 M247.081 251.173 C 247.081 251.352,245.979 252.259,244.633 253.190 L 242.185 254.881 244.011 252.864 C 245.639 251.066,247.081 250.271,247.081 251.173 M250.482 258.822 C 254.936 257.704,252.684 265.010,247.261 269.268 L 244.444 271.481 247.646 267.961 C 251.240 264.009,251.642 262.695,249.153 263.041 C 247.806 263.228,247.410 262.867,247.227 261.282 C 247.081 260.024,246.427 259.138,245.456 258.884 C 244.609 258.663,244.137 258.124,244.408 257.686 C 244.734 257.158,245.517 257.295,246.738 258.095 C 247.889 258.849,249.289 259.121,250.482 258.822 M298.294 261.533 C 298.314 266.568,297.172 268.373,294.346 267.768 C 291.000 267.051,291.005 267.313,294.221 261.815 C 297.284 256.578,298.273 256.510,298.294 261.533 M106.215 261.394 C 105.179 261.725,102.976 261.982,101.318 261.965 L 98.305 261.933 101.318 261.394 C 102.976 261.097,105.179 260.840,106.215 260.822 L 108.098 260.790 106.215 261.394 M241.850 265.043 C 243.101 266.055,243.406 266.821,242.976 267.868 C 242.500 269.025,242.311 269.084,241.998 268.173 C 241.785 267.552,240.723 266.293,239.638 265.375 C 237.133 263.258,239.253 262.939,241.850 265.043 M303.307 270.983 C 300.979 275.484,297.836 276.035,298.430 271.838 C 298.627 270.444,299.214 270.005,301.130 269.820 C 302.476 269.691,303.578 269.210,303.578 268.753 C 303.578 268.296,303.773 268.117,304.010 268.354 C 304.248 268.592,303.931 269.775,303.307 270.983 M308.108 277.564 C 306.946 280.620,304.333 285.499,303.858 285.499 C 302.999 285.499,304.446 281.322,306.271 278.531 C 308.402 275.274,309.123 274.894,308.108 277.564 M171.740 325.461 C 171.746 326.518,172.153 327.783,172.643 328.274 C 173.654 329.285,173.012 330.346,171.829 329.615 C 170.761 328.955,169.485 324.058,170.018 322.668 C 170.625 321.088,171.724 322.872,171.740 325.461 M186.817 334.087 C 184.988 335.951,183.137 337.461,182.706 337.443 C 181.964 337.411,189.003 330.697,189.778 330.697 C 189.980 330.697,188.647 332.222,186.817 334.087 M116.445 386.323 C 115.796 387.578,114.950 388.800,114.564 389.038 C 114.179 389.276,114.595 388.135,115.490 386.502 C 117.370 383.069,118.209 382.912,116.445 386.323 " stroke="none" fill="#000000" fill-rule="evenodd"></path></g></svg>